<?xml version="1.0" encoding="UTF-8"?>
<svg xmlns="http://www.w3.org/2000/svg" xmlns:xlink="http://www.w3.org/1999/xlink" width="220.354pt" height="194.269pt" viewBox="0 0 220.354 194.269">
<defs>
<g>
<g id="glyph-0-0">
<path d="M 6.96875 -3.859375 L 6.765625 -6.03125 L 0.578125 -6.03125 L 0.390625 -3.859375 L 0.84375 -3.859375 C 0.921875 -4.84375 1.015625 -5.59375 2.328125 -5.59375 L 3.03125 -5.59375 L 3.03125 -0.4375 L 1.65625 -0.4375 L 1.65625 0 C 2.0625 -0.03125 3.21875 -0.03125 3.6875 -0.03125 C 4.140625 -0.03125 5.296875 -0.03125 5.6875 0 L 5.6875 -0.4375 L 4.328125 -0.4375 L 4.328125 -5.59375 L 5.03125 -5.59375 C 6.34375 -5.59375 6.421875 -4.828125 6.5 -3.859375 Z M 6.96875 -3.859375 "/>
</g>
<g id="glyph-0-1">
<path d="M 7.40625 -3.53125 L 7.40625 -3.96875 C 7.15625 -3.9375 6.921875 -3.9375 6.6875 -3.9375 C 6.40625 -3.9375 6.125 -3.953125 5.84375 -3.96875 L 5.84375 -3.53125 C 5.953125 -3.53125 6.15625 -3.53125 6.34375 -3.453125 C 6.3125 -3.375 6.3125 -3.375 6.296875 -3.3125 L 5.34375 -1.03125 L 4.3125 -3.53125 L 4.796875 -3.53125 L 4.796875 -3.96875 L 3.796875 -3.9375 C 3.703125 -3.9375 3.265625 -3.9375 2.875 -3.96875 L 2.875 -3.53125 L 3.390625 -3.53125 C 3.515625 -3.265625 3.515625 -3.25 3.5625 -3.125 L 2.78125 -1.25 L 1.828125 -3.53125 L 2.3125 -3.53125 L 2.3125 -3.96875 L 1.21875 -3.9375 C 1.015625 -3.9375 0.6875 -3.9375 0.234375 -3.96875 L 0.234375 -3.53125 L 0.75 -3.53125 L 2.140625 -0.1875 C 2.25 0.046875 2.390625 0.046875 2.5 0.046875 C 2.734375 0.046875 2.78125 -0.046875 2.84375 -0.203125 L 3.8125 -2.53125 L 4.796875 -0.1875 C 4.890625 0.046875 5.015625 0.046875 5.140625 0.046875 C 5.25 0.046875 5.390625 0.046875 5.484375 -0.1875 L 6.796875 -3.328125 C 6.859375 -3.484375 6.875 -3.53125 7.40625 -3.53125 Z M 7.40625 -3.53125 "/>
</g>
<g id="glyph-0-2">
<path d="M 4.984375 -1.953125 C 4.984375 -3.125 4.171875 -4.046875 2.640625 -4.046875 C 1.078125 -4.046875 0.296875 -3.078125 0.296875 -1.953125 C 0.296875 -0.84375 1.09375 0.046875 2.640625 0.046875 C 4.234375 0.046875 4.984375 -0.890625 4.984375 -1.953125 Z M 3.796875 -2.046875 C 3.796875 -1.28125 3.796875 -0.328125 2.640625 -0.328125 C 1.484375 -0.328125 1.484375 -1.265625 1.484375 -2.046875 C 1.484375 -2.796875 1.484375 -3.6875 2.640625 -3.6875 C 3.796875 -3.6875 3.796875 -2.796875 3.796875 -2.046875 Z M 3.796875 -2.046875 "/>
</g>
<g id="glyph-0-3">
<path d="M 4.390625 -1.03125 C 4.390625 -1.1875 4.265625 -1.1875 4.171875 -1.1875 C 3.984375 -1.1875 3.984375 -1.171875 3.921875 -1.015625 C 3.734375 -0.578125 3.328125 -0.328125 2.8125 -0.328125 C 1.53125 -0.328125 1.53125 -1.625 1.53125 -2.015625 C 1.53125 -2.5625 1.546875 -3.671875 2.71875 -3.671875 C 2.78125 -3.671875 3.265625 -3.65625 3.265625 -3.609375 L 3.234375 -3.5625 C 3.15625 -3.46875 3.125 -3.328125 3.125 -3.203125 C 3.125 -2.828125 3.390625 -2.625 3.703125 -2.625 C 3.984375 -2.625 4.28125 -2.8125 4.28125 -3.203125 C 4.28125 -4.046875 3.03125 -4.046875 2.6875 -4.046875 C 0.96875 -4.046875 0.34375 -2.953125 0.34375 -1.984375 C 0.34375 -0.859375 1.15625 0.046875 2.640625 0.046875 C 2.96875 0.046875 3.40625 0 3.78125 -0.234375 C 4.296875 -0.546875 4.390625 -1.015625 4.390625 -1.03125 Z M 4.390625 -1.03125 "/>
</g>
<g id="glyph-0-4">
<path d="M 4.546875 -1.03125 C 4.546875 -1.21875 4.375 -1.21875 4.3125 -1.21875 C 4.15625 -1.21875 4.140625 -1.15625 4.078125 -1.03125 C 3.875 -0.578125 3.328125 -0.328125 2.765625 -0.328125 C 1.5 -0.328125 1.484375 -1.484375 1.484375 -1.921875 L 4.25 -1.921875 C 4.4375 -1.921875 4.546875 -1.921875 4.546875 -2.171875 C 4.546875 -2.375 4.53125 -3.15625 3.953125 -3.640625 C 3.546875 -3.96875 3.015625 -4.046875 2.578125 -4.046875 C 1.046875 -4.046875 0.296875 -3.078125 0.296875 -2.015625 C 0.296875 -0.84375 1.1875 0.046875 2.703125 0.046875 C 4.171875 0.046875 4.546875 -0.890625 4.546875 -1.03125 Z M 3.671875 -2.25 L 1.484375 -2.25 C 1.5 -2.65625 1.546875 -3.6875 2.578125 -3.6875 C 3.625 -3.6875 3.65625 -2.59375 3.671875 -2.25 Z M 3.671875 -2.25 "/>
</g>
<g id="glyph-0-5">
<path d="M 2.609375 0 L 2.609375 -0.4375 L 2.0625 -0.4375 L 2.0625 -4.015625 L 0.484375 -3.953125 L 0.484375 -3.515625 C 1.015625 -3.515625 1.078125 -3.515625 1.078125 -3.15625 L 1.078125 -0.4375 L 0.46875 -0.4375 L 0.46875 0 C 1.0625 -0.015625 1.1875 -0.03125 1.5625 -0.03125 C 2 -0.03125 2.109375 -0.015625 2.609375 0 Z M 2.15625 -5.40625 C 2.15625 -5.828125 1.828125 -6.109375 1.46875 -6.109375 C 1.09375 -6.109375 0.765625 -5.8125 0.765625 -5.421875 C 0.765625 -5 1.109375 -4.703125 1.46875 -4.703125 C 1.84375 -4.703125 2.15625 -5.015625 2.15625 -5.40625 Z M 2.15625 -5.40625 "/>
</g>
<g id="glyph-0-6">
<path d="M 2.671875 0 L 2.671875 -0.4375 L 2.0625 -0.4375 L 2.0625 -6.203125 L 0.46875 -6.125 L 0.46875 -5.6875 C 1 -5.6875 1.078125 -5.6875 1.078125 -5.34375 L 1.078125 -0.4375 L 0.46875 -0.4375 L 0.46875 0 L 1.5625 -0.03125 Z M 2.671875 0 "/>
</g>
<g id="glyph-0-7">
<path d="M 5.625 0 L 5.625 -0.4375 L 5.015625 -0.4375 L 5.015625 -2.71875 C 5.015625 -3.796875 4.375 -4.015625 3.609375 -4.015625 C 2.5 -4.015625 2.0625 -3.21875 2 -3.078125 L 2 -4.015625 L 0.453125 -3.953125 L 0.453125 -3.515625 C 0.984375 -3.515625 1.046875 -3.515625 1.046875 -3.15625 L 1.046875 -0.4375 L 0.453125 -0.4375 L 0.453125 0 L 1.578125 -0.03125 L 2.703125 0 L 2.703125 -0.4375 L 2.09375 -0.4375 L 2.09375 -2.265625 C 2.09375 -3.265625 2.921875 -3.671875 3.453125 -3.671875 C 3.796875 -3.671875 3.984375 -3.484375 3.984375 -2.8125 L 3.984375 -0.4375 L 3.375 -0.4375 L 3.375 0 L 4.5 -0.03125 Z M 5.625 0 "/>
</g>
<g id="glyph-0-8">
<path d="M 5.140625 -3.53125 C 5.140625 -3.765625 4.953125 -4.078125 4.546875 -4.078125 C 4.109375 -4.078125 3.734375 -3.859375 3.5625 -3.734375 C 3.1875 -3.953125 2.78125 -4.015625 2.34375 -4.015625 C 0.984375 -4.015625 0.515625 -3.28125 0.515625 -2.703125 C 0.515625 -2.203125 0.828125 -1.890625 0.984375 -1.75 C 0.796875 -1.546875 0.6875 -1.25 0.6875 -0.96875 C 0.6875 -0.59375 0.875 -0.28125 1.0625 -0.109375 C 0.390625 0.078125 0.296875 0.453125 0.296875 0.65625 C 0.296875 1.1875 0.90625 1.796875 2.640625 1.796875 C 4.203125 1.796875 4.984375 1.3125 4.984375 0.625 C 4.984375 0.3125 4.875 -0.234375 4.25 -0.53125 C 3.734375 -0.765625 3.265625 -0.765625 2.375 -0.765625 L 1.9375 -0.765625 C 1.640625 -0.765625 1.515625 -0.765625 1.375 -0.875 C 1.234375 -0.984375 1.15625 -1.140625 1.15625 -1.328125 C 1.15625 -1.5 1.234375 -1.59375 1.234375 -1.59375 C 1.5625 -1.4375 1.953125 -1.375 2.34375 -1.375 C 3.71875 -1.375 4.1875 -2.109375 4.1875 -2.6875 C 4.1875 -3.0625 4.015625 -3.359375 3.828125 -3.546875 C 4.0625 -3.671875 4.25 -3.6875 4.359375 -3.703125 C 4.359375 -3.671875 4.328125 -3.609375 4.328125 -3.515625 C 4.328125 -3.28125 4.515625 -3.125 4.734375 -3.125 C 4.9375 -3.125 5.140625 -3.265625 5.140625 -3.53125 Z M 3.15625 -2.703125 C 3.15625 -2.296875 3.15625 -1.71875 2.34375 -1.71875 C 1.546875 -1.71875 1.546875 -2.296875 1.546875 -2.6875 C 1.546875 -3.09375 1.546875 -3.671875 2.34375 -3.671875 C 3.15625 -3.671875 3.15625 -3.09375 3.15625 -2.703125 Z M 4.1875 0.65625 C 4.1875 0.953125 3.859375 1.4375 2.640625 1.4375 C 1.46875 1.4375 1.09375 0.984375 1.09375 0.640625 C 1.09375 0.125 1.65625 0.125 1.796875 0.125 L 2.875 0.125 C 3.15625 0.125 4.1875 0.125 4.1875 0.65625 Z M 4.1875 0.65625 "/>
</g>
<g id="glyph-0-9">
<path d="M 3.8125 -1.25 C 3.8125 -1.703125 3.5625 -2 3.390625 -2.125 C 3 -2.46875 2.703125 -2.515625 2 -2.625 C 1.578125 -2.703125 1.015625 -2.78125 1.015625 -3.1875 C 1.015625 -3.734375 1.84375 -3.734375 2.03125 -3.734375 C 3.03125 -3.734375 3.078125 -3.203125 3.09375 -2.953125 C 3.09375 -2.828125 3.21875 -2.828125 3.3125 -2.828125 C 3.546875 -2.828125 3.546875 -2.875 3.546875 -3.09375 L 3.546875 -3.796875 C 3.546875 -3.953125 3.546875 -4.046875 3.375 -4.046875 C 3.28125 -4.046875 3.140625 -3.984375 2.96875 -3.890625 C 2.6875 -4.015625 2.34375 -4.046875 2.046875 -4.046875 C 1.765625 -4.046875 0.34375 -4.046875 0.34375 -2.875 C 0.34375 -1.9375 1.515625 -1.734375 1.828125 -1.6875 C 2.5625 -1.5625 3.15625 -1.453125 3.15625 -0.953125 C 3.15625 -0.296875 2.3125 -0.296875 2.125 -0.296875 C 1.65625 -0.296875 1.078125 -0.421875 0.828125 -1.25 C 0.78125 -1.390625 0.765625 -1.421875 0.578125 -1.421875 C 0.34375 -1.421875 0.34375 -1.375 0.34375 -1.15625 L 0.34375 -0.203125 C 0.34375 -0.046875 0.34375 0.046875 0.53125 0.046875 C 0.59375 0.046875 0.609375 0.046875 0.796875 -0.078125 L 1.046875 -0.21875 C 1.46875 0.046875 1.9375 0.046875 2.125 0.046875 C 2.390625 0.046875 3.8125 0.046875 3.8125 -1.25 Z M 3.8125 -1.25 "/>
</g>
<g id="glyph-1-0">
<path d="M 5.046875 -2.078125 C 5.046875 -3.1875 4.171875 -3.421875 3.890625 -3.484375 L 3.078125 -3.6875 C 2.78125 -3.765625 2.25 -3.90625 2.25 -4.578125 C 2.25 -5.265625 2.953125 -6.046875 3.859375 -6.046875 C 4.203125 -6.046875 4.5625 -5.953125 4.8125 -5.703125 C 5.140625 -5.375 5.15625 -4.890625 5.15625 -4.65625 C 5.15625 -4.359375 5.125 -4.265625 5.125 -4.1875 C 5.125 -4.125 5.15625 -4.078125 5.25 -4.078125 C 5.34375 -4.078125 5.34375 -4.09375 5.390625 -4.265625 L 5.84375 -6.0625 C 5.875 -6.15625 5.875 -6.171875 5.875 -6.203125 C 5.875 -6.203125 5.859375 -6.296875 5.765625 -6.296875 C 5.71875 -6.296875 5.71875 -6.296875 5.609375 -6.171875 C 5.484375 -6.03125 5.59375 -6.15625 5.171875 -5.671875 C 4.84375 -6.171875 4.328125 -6.296875 3.859375 -6.296875 C 2.703125 -6.296875 1.609375 -5.265625 1.609375 -4.203125 C 1.609375 -3.828125 1.71875 -3.53125 1.953125 -3.28125 C 2.21875 -3.015625 2.4375 -2.953125 3.078125 -2.78125 L 3.828125 -2.59375 C 4.125 -2.5 4.421875 -2.21875 4.421875 -1.71875 C 4.421875 -0.921875 3.65625 -0.078125 2.765625 -0.078125 C 2.234375 -0.078125 1.171875 -0.234375 1.171875 -1.390625 C 1.171875 -1.46875 1.171875 -1.59375 1.21875 -1.875 C 1.25 -1.90625 1.25 -1.9375 1.25 -1.9375 C 1.25 -1.96875 1.21875 -2.03125 1.125 -2.03125 C 1.015625 -2.03125 1 -1.984375 0.96875 -1.828125 L 0.484375 0.09375 C 0.484375 0.15625 0.53125 0.203125 0.59375 0.203125 C 0.640625 0.203125 0.65625 0.1875 0.765625 0.0625 C 0.828125 0 1.078125 -0.328125 1.1875 -0.4375 C 1.65625 0.15625 2.46875 0.203125 2.75 0.203125 C 3.984375 0.203125 5.046875 -0.953125 5.046875 -2.078125 Z M 5.046875 -2.078125 "/>
</g>
<g id="glyph-1-1">
<path d="M 4.515625 -1.28125 C 4.515625 -1.328125 4.484375 -1.390625 4.390625 -1.390625 C 4.296875 -1.390625 4.28125 -1.34375 4.234375 -1.1875 C 4.125 -0.71875 3.890625 -0.125 3.484375 -0.125 C 3.21875 -0.125 3.1875 -0.359375 3.1875 -0.546875 C 3.1875 -0.78125 3.25 -1.015625 3.25 -1.03125 C 3.265625 -1.078125 3.28125 -1.1875 3.28125 -1.296875 C 3.28125 -1.921875 2.640625 -2.15625 1.953125 -2.25 C 2.21875 -2.40625 2.40625 -2.59375 2.703125 -2.890625 C 3.15625 -3.34375 3.53125 -3.734375 4 -3.734375 C 4.109375 -3.734375 4.234375 -3.703125 4.296875 -3.625 C 3.890625 -3.578125 3.796875 -3.25 3.796875 -3.125 C 3.796875 -2.953125 3.921875 -2.8125 4.140625 -2.8125 C 4.359375 -2.8125 4.640625 -2.96875 4.640625 -3.359375 C 4.640625 -3.65625 4.421875 -3.953125 4 -3.953125 C 3.453125 -3.953125 3.015625 -3.515625 2.640625 -3.125 C 2.21875 -2.703125 2 -2.5 1.671875 -2.34375 L 2.5625 -5.90625 C 2.59375 -6.03125 2.59375 -6.046875 2.59375 -6.078125 C 2.59375 -6.15625 2.546875 -6.203125 2.46875 -6.203125 C 2.34375 -6.203125 1.5625 -6.125 1.375 -6.109375 C 1.28125 -6.109375 1.1875 -6.09375 1.1875 -5.9375 C 1.1875 -5.828125 1.28125 -5.828125 1.4375 -5.828125 C 1.84375 -5.828125 1.84375 -5.765625 1.84375 -5.6875 C 1.84375 -5.65625 1.84375 -5.625 1.8125 -5.46875 L 0.53125 -0.328125 C 0.484375 -0.203125 0.484375 -0.1875 0.484375 -0.15625 C 0.484375 -0.015625 0.609375 0.09375 0.765625 0.09375 C 1.0625 0.09375 1.125 -0.15625 1.171875 -0.34375 L 1.59375 -2.03125 C 2.203125 -1.96875 2.65625 -1.734375 2.65625 -1.28125 C 2.65625 -1.234375 2.65625 -1.203125 2.625 -1.0625 C 2.625 -1.03125 2.59375 -0.90625 2.59375 -0.796875 C 2.59375 -0.28125 2.953125 0.09375 3.453125 0.09375 C 3.796875 0.09375 4 -0.109375 4.171875 -0.359375 C 4.390625 -0.703125 4.515625 -1.25 4.515625 -1.28125 Z M 4.515625 -1.28125 "/>
</g>
<g id="glyph-1-2">
<path d="M 1.84375 -0.015625 C 1.84375 -0.578125 1.65625 -0.96875 1.265625 -0.96875 C 0.96875 -0.96875 0.78125 -0.734375 0.78125 -0.484375 C 0.78125 -0.234375 0.96875 0 1.265625 0 C 1.40625 0 1.53125 -0.046875 1.625 -0.140625 C 1.625 0.15625 1.625 0.890625 0.96875 1.515625 C 0.90625 1.578125 0.90625 1.578125 0.90625 1.625 C 0.90625 1.6875 0.96875 1.71875 1.03125 1.71875 C 1.125 1.71875 1.84375 1.03125 1.84375 -0.015625 Z M 1.84375 -0.015625 "/>
</g>
<g id="glyph-1-3">
<path d="M 3.375 -0.765625 C 3.375 -0.8125 3.3125 -0.890625 3.25 -0.890625 C 3.203125 -0.890625 3.1875 -0.890625 3.109375 -0.796875 C 2.53125 -0.265625 2.21875 -0.109375 1.9375 -0.109375 C 1.8125 -0.109375 1.609375 -0.109375 1.46875 -0.515625 C 1.4375 -0.65625 1.375 -0.96875 1.375 -1.28125 C 1.375 -1.4375 1.375 -1.609375 1.40625 -1.75 C 1.40625 -1.75 1.40625 -1.78125 1.59375 -1.953125 C 1.984375 -2.34375 2.5 -2.9375 2.84375 -3.484375 C 3.5625 -4.546875 3.625 -5.328125 3.625 -5.59375 C 3.625 -5.90625 3.53125 -6.296875 3.078125 -6.296875 C 2.65625 -6.296875 2.359375 -5.9375 2.25 -5.78125 C 1.40625 -4.75 0.84375 -2.859375 0.84375 -1.71875 C 0.84375 -1.671875 0.84375 -1.609375 0.84375 -1.5625 L 0.234375 -0.984375 C 0.21875 -0.96875 0.15625 -0.90625 0.125 -0.890625 C 0.109375 -0.859375 0.09375 -0.828125 0.09375 -0.796875 C 0.09375 -0.765625 0.125 -0.65625 0.203125 -0.65625 C 0.28125 -0.65625 0.625 -1 0.71875 -1.109375 L 0.875 -1.25 C 0.984375 -0.421875 1.3125 0.109375 1.90625 0.109375 C 2.46875 0.109375 3 -0.375 3.328125 -0.671875 C 3.34375 -0.671875 3.375 -0.703125 3.375 -0.765625 Z M 3.375 -5.625 C 3.375 -5.484375 3.34375 -4.921875 2.984375 -4.1875 C 2.46875 -3.140625 1.46875 -2.1875 1.46875 -2.1875 C 1.53125 -2.53125 1.84375 -3.90625 2.140625 -4.703125 C 2.25 -4.984375 2.65625 -6.078125 3.078125 -6.078125 C 3.328125 -6.078125 3.375 -5.84375 3.375 -5.625 Z M 3.375 -5.625 "/>
</g>
<g id="glyph-2-0">
<path d="M 6.140625 -0.859375 C 6.140625 -0.859375 6.140625 -0.9375 6.03125 -0.9375 C 5.953125 -0.9375 5.9375 -0.90625 5.90625 -0.796875 C 5.796875 -0.453125 5.546875 -0.140625 5.265625 -0.140625 C 5.1875 -0.140625 5.109375 -0.171875 5.109375 -0.34375 C 5.109375 -0.46875 5.140625 -0.578125 5.203125 -0.703125 C 5.265625 -0.875 5.546875 -1.59375 5.546875 -1.9375 C 5.546875 -2.421875 5.1875 -2.625 4.734375 -2.625 C 4.40625 -2.625 4.015625 -2.5 3.625 -2 C 3.59375 -2.4375 3.234375 -2.625 2.796875 -2.625 C 2.5 -2.625 2.125 -2.53125 1.75 -2.0625 C 1.71875 -2.515625 1.296875 -2.625 1.078125 -2.625 C 0.84375 -2.625 0.6875 -2.484375 0.578125 -2.296875 C 0.421875 -2.046875 0.359375 -1.734375 0.359375 -1.71875 C 0.359375 -1.65625 0.421875 -1.625 0.46875 -1.625 C 0.5625 -1.625 0.578125 -1.671875 0.59375 -1.765625 C 0.71875 -2.234375 0.859375 -2.421875 1.046875 -2.421875 C 1.25 -2.421875 1.265625 -2.21875 1.265625 -2.125 C 1.265625 -2.03125 1.203125 -1.796875 1.171875 -1.625 L 1.03125 -1.09375 L 0.921875 -0.640625 C 0.875 -0.46875 0.796875 -0.171875 0.796875 -0.140625 C 0.796875 0 0.90625 0.0625 1.015625 0.0625 C 1.125 0.0625 1.21875 -0.015625 1.265625 -0.09375 L 1.359375 -0.46875 L 1.5 -1 L 1.59375 -1.40625 C 1.65625 -1.59375 1.859375 -1.921875 2.078125 -2.140625 C 2.203125 -2.25 2.453125 -2.421875 2.78125 -2.421875 C 3.15625 -2.421875 3.15625 -2.125 3.15625 -2.015625 C 3.15625 -1.875 3.09375 -1.625 3.046875 -1.4375 L 2.8125 -0.515625 C 2.78125 -0.390625 2.734375 -0.171875 2.734375 -0.140625 C 2.734375 0 2.828125 0.0625 2.9375 0.0625 C 3.046875 0.0625 3.15625 -0.015625 3.203125 -0.09375 L 3.296875 -0.46875 L 3.421875 -1 L 3.53125 -1.40625 C 3.578125 -1.59375 3.78125 -1.921875 4 -2.140625 C 4.125 -2.25 4.375 -2.421875 4.703125 -2.421875 C 5.078125 -2.421875 5.078125 -2.125 5.078125 -2.015625 C 5.078125 -1.65625 4.828125 -1.03125 4.71875 -0.75 C 4.6875 -0.65625 4.640625 -0.5625 4.640625 -0.453125 C 4.640625 -0.15625 4.921875 0.0625 5.25 0.0625 C 5.84375 0.0625 6.140625 -0.71875 6.140625 -0.859375 Z M 6.140625 -0.859375 "/>
</g>
<g id="glyph-3-0">
<path d="M 3.046875 2.125 C 3.046875 2.078125 3.015625 2.0625 2.96875 2 C 1.8125 0.9375 1.46875 -0.671875 1.46875 -2.234375 C 1.46875 -3.625 1.734375 -5.296875 3 -6.5 C 3.03125 -6.53125 3.046875 -6.5625 3.046875 -6.609375 C 3.046875 -6.671875 3 -6.703125 2.9375 -6.703125 C 2.828125 -6.703125 2.03125 -6.0625 1.546875 -5.078125 C 1.125 -4.234375 0.90625 -3.3125 0.90625 -2.25 C 0.90625 -1.59375 0.984375 -0.578125 1.46875 0.46875 C 2 1.578125 2.828125 2.21875 2.9375 2.21875 C 3 2.21875 3.046875 2.1875 3.046875 2.125 Z M 3.046875 2.125 "/>
</g>
<g id="glyph-3-1">
<path d="M 2.65625 -2.25 C 2.65625 -2.96875 2.5625 -3.953125 2.09375 -4.953125 C 1.5625 -6.046875 0.734375 -6.703125 0.625 -6.703125 C 0.53125 -6.703125 0.515625 -6.625 0.515625 -6.609375 C 0.515625 -6.5625 0.53125 -6.53125 0.59375 -6.46875 C 1.125 -6 2.09375 -4.796875 2.09375 -2.25 C 2.09375 -0.96875 1.875 0.8125 0.578125 2.015625 C 0.546875 2.046875 0.515625 2.078125 0.515625 2.125 C 0.515625 2.15625 0.53125 2.21875 0.625 2.21875 C 0.734375 2.21875 1.53125 1.578125 2.015625 0.609375 C 2.453125 -0.25 2.65625 -1.171875 2.65625 -2.25 Z M 2.65625 -2.25 "/>
</g>
<g id="glyph-4-0">
<path d="M 3.890625 -1 C 3.890625 -1.078125 3.796875 -1.078125 3.78125 -1.078125 C 3.671875 -1.078125 3.671875 -1.046875 3.640625 -0.921875 C 3.546875 -0.625 3.359375 -0.125 3.03125 -0.125 C 2.84375 -0.125 2.78125 -0.296875 2.78125 -0.484375 C 2.78125 -0.609375 2.78125 -0.625 2.828125 -0.796875 C 2.828125 -0.828125 2.859375 -0.9375 2.859375 -1.015625 C 2.859375 -1.640625 2.015625 -1.734375 1.734375 -1.75 C 1.9375 -1.875 2.1875 -2.109375 2.3125 -2.21875 C 2.65625 -2.546875 3.015625 -2.875 3.40625 -2.875 C 3.484375 -2.875 3.578125 -2.84375 3.625 -2.78125 C 3.328125 -2.734375 3.265625 -2.5 3.265625 -2.390625 C 3.265625 -2.234375 3.390625 -2.140625 3.546875 -2.140625 C 3.734375 -2.140625 3.9375 -2.28125 3.9375 -2.578125 C 3.9375 -2.8125 3.78125 -3.0625 3.40625 -3.0625 C 3.015625 -3.0625 2.65625 -2.78125 2.296875 -2.453125 C 2 -2.171875 1.765625 -1.953125 1.484375 -1.84375 L 2.171875 -4.609375 C 2.1875 -4.625 2.203125 -4.734375 2.203125 -4.734375 C 2.203125 -4.765625 2.171875 -4.828125 2.09375 -4.828125 C 1.953125 -4.828125 1.375 -4.765625 1.203125 -4.75 C 1.140625 -4.75 1.046875 -4.734375 1.046875 -4.59375 C 1.046875 -4.5 1.140625 -4.5 1.234375 -4.5 C 1.5625 -4.5 1.5625 -4.453125 1.5625 -4.390625 C 1.5625 -4.34375 1.546875 -4.296875 1.53125 -4.234375 L 0.5625 -0.3125 C 0.515625 -0.1875 0.515625 -0.15625 0.515625 -0.15625 C 0.515625 -0.046875 0.609375 0.0625 0.765625 0.0625 C 0.953125 0.0625 1.03125 -0.0625 1.078125 -0.21875 C 1.09375 -0.25 1.390625 -1.46875 1.421875 -1.578125 C 1.90625 -1.515625 2.3125 -1.359375 2.3125 -1 C 2.3125 -0.96875 2.3125 -0.9375 2.296875 -0.859375 C 2.265625 -0.765625 2.265625 -0.71875 2.265625 -0.640625 C 2.265625 -0.15625 2.671875 0.0625 3 0.0625 C 3.671875 0.0625 3.890625 -1 3.890625 -1 Z M 3.890625 -1 "/>
</g>
<g id="glyph-4-1">
<path d="M 6.671875 -4.65625 C 6.671875 -4.6875 6.640625 -4.75 6.578125 -4.75 C 6.34375 -4.75 6.078125 -4.71875 5.84375 -4.71875 C 5.6875 -4.71875 5.28125 -4.75 5.109375 -4.75 C 5.078125 -4.75 4.96875 -4.75 4.96875 -4.59375 C 4.96875 -4.5 5.0625 -4.5 5.125 -4.5 C 5.453125 -4.484375 5.5625 -4.390625 5.5625 -4.21875 C 5.5625 -4.15625 5.5625 -4.125 5.546875 -4.046875 L 4.78125 -1.015625 L 3.015625 -4.625 C 2.96875 -4.75 2.953125 -4.75 2.78125 -4.75 L 1.828125 -4.75 C 1.703125 -4.75 1.609375 -4.75 1.609375 -4.59375 C 1.609375 -4.5 1.6875 -4.5 1.828125 -4.5 C 1.984375 -4.5 2.140625 -4.484375 2.28125 -4.46875 L 1.34375 -0.75 C 1.28125 -0.484375 1.171875 -0.265625 0.625 -0.25 C 0.578125 -0.25 0.484375 -0.25 0.484375 -0.109375 C 0.484375 -0.03125 0.53125 0 0.578125 0 C 0.8125 0 1.078125 -0.03125 1.3125 -0.03125 C 1.46875 -0.03125 1.875 0 2.046875 0 C 2.109375 0 2.1875 -0.03125 2.1875 -0.140625 C 2.1875 -0.25 2.09375 -0.25 2.015625 -0.25 C 1.578125 -0.265625 1.578125 -0.4375 1.578125 -0.546875 C 1.578125 -0.5625 1.578125 -0.609375 1.609375 -0.71875 L 2.5 -4.28125 L 4.53125 -0.125 C 4.59375 0 4.609375 0 4.6875 0 C 4.796875 0 4.796875 -0.015625 4.828125 -0.140625 L 5.796875 -3.984375 C 5.875 -4.25 5.984375 -4.484375 6.53125 -4.5 C 6.578125 -4.5 6.671875 -4.5 6.671875 -4.65625 Z M 6.671875 -4.65625 "/>
</g>
<g id="glyph-4-2">
<path d="M 6.703125 -1 C 6.703125 -1.078125 6.625 -1.078125 6.59375 -1.078125 C 6.5 -1.078125 6.5 -1.046875 6.46875 -0.96875 C 6.3125 -0.40625 6 -0.125 5.734375 -0.125 C 5.578125 -0.125 5.5625 -0.21875 5.5625 -0.375 C 5.5625 -0.53125 5.59375 -0.625 5.71875 -0.9375 C 5.796875 -1.140625 6.078125 -1.890625 6.078125 -2.28125 C 6.078125 -2.390625 6.078125 -2.671875 5.828125 -2.875 C 5.703125 -2.96875 5.5 -3.0625 5.1875 -3.0625 C 4.546875 -3.0625 4.171875 -2.65625 3.953125 -2.359375 C 3.890625 -2.953125 3.40625 -3.0625 3.046875 -3.0625 C 2.46875 -3.0625 2.078125 -2.71875 1.875 -2.4375 C 1.828125 -2.90625 1.40625 -3.0625 1.125 -3.0625 C 0.828125 -3.0625 0.671875 -2.84375 0.578125 -2.6875 C 0.421875 -2.4375 0.328125 -2.03125 0.328125 -2 C 0.328125 -1.90625 0.421875 -1.90625 0.4375 -1.90625 C 0.546875 -1.90625 0.546875 -1.9375 0.59375 -2.125 C 0.703125 -2.53125 0.828125 -2.875 1.109375 -2.875 C 1.28125 -2.875 1.328125 -2.71875 1.328125 -2.53125 C 1.328125 -2.40625 1.265625 -2.140625 1.21875 -1.953125 L 1.078125 -1.328125 L 0.84375 -0.4375 C 0.828125 -0.34375 0.78125 -0.171875 0.78125 -0.15625 C 0.78125 0 0.90625 0.0625 1.015625 0.0625 C 1.140625 0.0625 1.25 -0.015625 1.28125 -0.078125 C 1.328125 -0.140625 1.375 -0.375 1.40625 -0.515625 L 1.5625 -1.140625 C 1.609375 -1.296875 1.640625 -1.453125 1.6875 -1.609375 C 1.765625 -1.890625 1.765625 -1.953125 1.96875 -2.234375 C 2.171875 -2.515625 2.5 -2.875 3.015625 -2.875 C 3.421875 -2.875 3.421875 -2.515625 3.421875 -2.390625 C 3.421875 -2.21875 3.40625 -2.125 3.3125 -1.734375 L 3.015625 -0.5625 C 2.984375 -0.421875 2.921875 -0.1875 2.921875 -0.15625 C 2.921875 0 3.046875 0.0625 3.15625 0.0625 C 3.28125 0.0625 3.390625 -0.015625 3.421875 -0.078125 C 3.46875 -0.140625 3.515625 -0.375 3.546875 -0.515625 L 3.703125 -1.140625 C 3.75 -1.296875 3.796875 -1.453125 3.828125 -1.609375 C 3.90625 -1.90625 3.90625 -1.921875 4.046875 -2.140625 C 4.265625 -2.46875 4.609375 -2.875 5.15625 -2.875 C 5.546875 -2.875 5.5625 -2.546875 5.5625 -2.390625 C 5.5625 -1.96875 5.265625 -1.203125 5.15625 -0.90625 C 5.078125 -0.703125 5.046875 -0.640625 5.046875 -0.53125 C 5.046875 -0.15625 5.359375 0.0625 5.703125 0.0625 C 6.40625 0.0625 6.703125 -0.890625 6.703125 -1 Z M 6.703125 -1 "/>
</g>
<g id="glyph-4-3">
<path d="M 4.578125 -1 C 4.578125 -1.078125 4.484375 -1.078125 4.46875 -1.078125 C 4.359375 -1.078125 4.359375 -1.046875 4.328125 -0.96875 C 4.171875 -0.40625 3.875 -0.125 3.59375 -0.125 C 3.453125 -0.125 3.421875 -0.21875 3.421875 -0.375 C 3.421875 -0.53125 3.453125 -0.625 3.578125 -0.9375 C 3.671875 -1.140625 3.953125 -1.890625 3.953125 -2.28125 C 3.953125 -2.953125 3.40625 -3.0625 3.046875 -3.0625 C 2.46875 -3.0625 2.078125 -2.71875 1.875 -2.4375 C 1.828125 -2.90625 1.40625 -3.0625 1.125 -3.0625 C 0.828125 -3.0625 0.671875 -2.84375 0.578125 -2.6875 C 0.421875 -2.4375 0.328125 -2.03125 0.328125 -2 C 0.328125 -1.90625 0.421875 -1.90625 0.4375 -1.90625 C 0.546875 -1.90625 0.546875 -1.9375 0.59375 -2.125 C 0.703125 -2.53125 0.828125 -2.875 1.109375 -2.875 C 1.28125 -2.875 1.328125 -2.71875 1.328125 -2.53125 C 1.328125 -2.40625 1.265625 -2.140625 1.21875 -1.953125 L 1.078125 -1.328125 L 0.84375 -0.4375 C 0.828125 -0.34375 0.78125 -0.171875 0.78125 -0.15625 C 0.78125 0 0.90625 0.0625 1.015625 0.0625 C 1.140625 0.0625 1.25 -0.015625 1.28125 -0.078125 C 1.328125 -0.140625 1.375 -0.375 1.40625 -0.515625 L 1.5625 -1.140625 C 1.609375 -1.296875 1.640625 -1.453125 1.6875 -1.609375 C 1.765625 -1.890625 1.765625 -1.953125 1.96875 -2.234375 C 2.171875 -2.515625 2.5 -2.875 3.015625 -2.875 C 3.421875 -2.875 3.421875 -2.515625 3.421875 -2.390625 C 3.421875 -1.96875 3.125 -1.203125 3.015625 -0.90625 C 2.9375 -0.703125 2.90625 -0.640625 2.90625 -0.53125 C 2.90625 -0.15625 3.21875 0.0625 3.578125 0.0625 C 4.265625 0.0625 4.578125 -0.890625 4.578125 -1 Z M 4.578125 -1 "/>
</g>
<g id="glyph-4-4">
<path d="M 4.3125 -1.578125 C 4.3125 -1.890625 4.1875 -2.171875 4.046875 -2.328125 C 3.796875 -2.578125 3.6875 -2.609375 2.796875 -2.8125 C 2.65625 -2.84375 2.421875 -2.90625 2.359375 -2.921875 C 2.1875 -2.984375 1.890625 -3.15625 1.890625 -3.5625 C 1.890625 -4.109375 2.515625 -4.671875 3.234375 -4.671875 C 3.984375 -4.671875 4.34375 -4.234375 4.34375 -3.578125 C 4.34375 -3.484375 4.3125 -3.328125 4.3125 -3.265625 C 4.3125 -3.171875 4.40625 -3.171875 4.4375 -3.171875 C 4.546875 -3.171875 4.546875 -3.203125 4.578125 -3.328125 L 4.9375 -4.796875 C 4.9375 -4.828125 4.921875 -4.890625 4.84375 -4.890625 C 4.8125 -4.890625 4.796875 -4.875 4.703125 -4.796875 L 4.359375 -4.390625 C 4.109375 -4.765625 3.671875 -4.890625 3.234375 -4.890625 C 2.265625 -4.890625 1.390625 -4.09375 1.390625 -3.296875 C 1.390625 -3.1875 1.40625 -2.90625 1.625 -2.65625 C 1.859375 -2.375 2.109375 -2.3125 2.59375 -2.203125 L 3.171875 -2.0625 C 3.40625 -2.015625 3.828125 -1.859375 3.828125 -1.328125 C 3.828125 -0.765625 3.234375 -0.109375 2.4375 -0.109375 C 1.828125 -0.109375 1.09375 -0.328125 1.09375 -1.09375 C 1.09375 -1.171875 1.109375 -1.328125 1.140625 -1.453125 C 1.140625 -1.46875 1.140625 -1.484375 1.140625 -1.484375 C 1.140625 -1.578125 1.0625 -1.578125 1.03125 -1.578125 C 0.9375 -1.578125 0.921875 -1.5625 0.890625 -1.4375 L 0.546875 -0.046875 C 0.53125 -0.015625 0.515625 0.015625 0.515625 0.0625 C 0.515625 0.09375 0.546875 0.140625 0.625 0.140625 C 0.65625 0.140625 0.671875 0.125 0.765625 0.046875 C 0.828125 -0.046875 1.015625 -0.265625 1.09375 -0.34375 C 1.453125 0.0625 2 0.140625 2.421875 0.140625 C 3.46875 0.140625 4.3125 -0.765625 4.3125 -1.578125 Z M 4.3125 -1.578125 "/>
</g>
<g id="glyph-4-5">
<path d="M 1.65625 -0.046875 C 1.65625 -0.46875 1.5 -0.796875 1.171875 -0.796875 C 0.953125 -0.796875 0.78125 -0.625 0.78125 -0.40625 C 0.78125 -0.1875 0.9375 0 1.1875 0 C 1.34375 0 1.46875 -0.109375 1.46875 -0.109375 C 1.46875 0.265625 1.390625 0.71875 0.921875 1.15625 C 0.890625 1.1875 0.875 1.203125 0.875 1.25 C 0.875 1.296875 0.9375 1.34375 0.96875 1.34375 C 1.078125 1.34375 1.65625 0.78125 1.65625 -0.046875 Z M 1.65625 -0.046875 "/>
</g>
<g id="glyph-5-0">
<path d="M 3.671875 -1.484375 C 3.671875 -2.34375 2.9375 -3.09375 1.96875 -3.09375 C 1.015625 -3.09375 0.265625 -2.34375 0.265625 -1.484375 C 0.265625 -0.625 1.03125 0.0625 1.96875 0.0625 C 2.90625 0.0625 3.671875 -0.625 3.671875 -1.484375 Z M 3.046875 -1.546875 C 3.046875 -1.203125 3.03125 -0.84375 2.828125 -0.5625 C 2.640625 -0.296875 2.3125 -0.15625 1.96875 -0.15625 C 1.71875 -0.15625 1.34375 -0.234375 1.109375 -0.578125 C 0.921875 -0.859375 0.90625 -1.21875 0.90625 -1.546875 C 0.90625 -1.84375 0.90625 -2.25 1.15625 -2.546875 C 1.328125 -2.75 1.625 -2.90625 1.96875 -2.90625 C 2.390625 -2.90625 2.671875 -2.71875 2.828125 -2.5 C 3.03125 -2.21875 3.046875 -1.875 3.046875 -1.546875 Z M 3.046875 -1.546875 "/>
</g>
<g id="glyph-5-1">
<path d="M 1.953125 0 L 1.953125 -0.25 C 1.5 -0.25 1.4375 -0.25 1.4375 -0.546875 L 1.4375 -4.828125 L 0.390625 -4.75 L 0.390625 -4.5 C 0.859375 -4.5 0.90625 -4.453125 0.90625 -4.109375 L 0.90625 -0.546875 C 0.90625 -0.25 0.84375 -0.25 0.390625 -0.25 L 0.390625 0 C 0.390625 0 0.890625 -0.03125 1.171875 -0.03125 C 1.4375 -0.03125 1.6875 -0.015625 1.953125 0 Z M 1.953125 0 "/>
</g>
<g id="glyph-5-2">
<path d="M 4.046875 0 L 4.046875 -0.25 C 3.578125 -0.25 3.515625 -0.296875 3.515625 -0.640625 L 3.515625 -4.828125 L 2.46875 -4.75 L 2.46875 -4.5 C 2.9375 -4.5 3 -4.453125 3 -4.109375 L 3 -2.671875 C 2.734375 -2.921875 2.40625 -3.0625 2.015625 -3.0625 C 1.09375 -3.0625 0.3125 -2.375 0.3125 -1.5 C 0.3125 -0.625 1.0625 0.0625 1.9375 0.0625 C 2.515625 0.0625 2.84375 -0.234375 2.96875 -0.359375 L 2.96875 0.0625 Z M 2.96875 -0.734375 C 2.78125 -0.40625 2.4375 -0.125 1.984375 -0.125 C 1.59375 -0.125 1.3125 -0.359375 1.171875 -0.5625 C 1.03125 -0.765625 0.953125 -1.046875 0.953125 -1.484375 C 0.953125 -1.640625 0.953125 -2.171875 1.234375 -2.5 C 1.515625 -2.8125 1.859375 -2.875 2.0625 -2.875 C 2.390625 -2.875 2.6875 -2.71875 2.890625 -2.46875 C 2.96875 -2.359375 2.96875 -2.34375 2.96875 -2.21875 Z M 2.96875 -0.734375 "/>
</g>
<g id="glyph-5-3">
<path d="M 3.25 -0.828125 C 3.25 -0.921875 3.15625 -0.921875 3.140625 -0.921875 C 3.046875 -0.921875 3.03125 -0.890625 3 -0.796875 C 2.84375 -0.375 2.484375 -0.15625 2.0625 -0.15625 C 1.578125 -0.15625 0.953125 -0.5 0.953125 -1.515625 C 0.953125 -2.390625 1.390625 -2.875 2.03125 -2.875 C 2.125 -2.875 2.453125 -2.875 2.703125 -2.78125 C 2.578125 -2.71875 2.515625 -2.609375 2.515625 -2.46875 C 2.515625 -2.28125 2.640625 -2.140625 2.84375 -2.140625 C 3.03125 -2.140625 3.171875 -2.265625 3.171875 -2.484375 C 3.171875 -3.09375 2.203125 -3.09375 2.015625 -3.09375 C 0.96875 -3.09375 0.3125 -2.296875 0.3125 -1.5 C 0.3125 -0.625 1.0625 0.0625 1.96875 0.0625 C 3.015625 0.0625 3.25 -0.75 3.25 -0.828125 Z M 3.25 -0.828125 "/>
</g>
<g id="glyph-5-4">
<path d="M 3.25 -0.828125 C 3.25 -0.859375 3.234375 -0.9375 3.140625 -0.9375 C 3.046875 -0.9375 3.03125 -0.890625 3.015625 -0.828125 C 2.796875 -0.25 2.265625 -0.15625 2.015625 -0.15625 C 1.6875 -0.15625 1.375 -0.296875 1.171875 -0.5625 C 0.90625 -0.890625 0.90625 -1.3125 0.90625 -1.578125 L 3.0625 -1.578125 C 3.203125 -1.578125 3.25 -1.578125 3.25 -1.734375 C 3.25 -2.34375 2.90625 -3.09375 1.875 -3.09375 C 0.96875 -3.09375 0.265625 -2.375 0.265625 -1.515625 C 0.265625 -0.640625 1.046875 0.0625 1.96875 0.0625 C 2.90625 0.0625 3.25 -0.6875 3.25 -0.828125 Z M 2.765625 -1.765625 L 0.90625 -1.765625 C 0.984375 -2.75 1.609375 -2.90625 1.875 -2.90625 C 2.734375 -2.90625 2.765625 -1.9375 2.765625 -1.765625 Z M 2.765625 -1.765625 "/>
</g>
<g id="glyph-5-5">
<path d="M 1.90625 0 L 1.90625 -0.25 C 1.5 -0.25 1.4375 -0.25 1.4375 -0.546875 L 1.4375 -3.0625 L 0.40625 -2.984375 L 0.40625 -2.734375 C 0.84375 -2.734375 0.90625 -2.703125 0.90625 -2.359375 L 0.90625 -0.546875 C 0.90625 -0.25 0.84375 -0.25 0.390625 -0.25 L 0.390625 0 C 0.390625 0 0.890625 -0.03125 1.171875 -0.03125 C 1.40625 -0.03125 1.65625 -0.015625 1.90625 0 Z M 1.515625 -4.1875 C 1.515625 -4.40625 1.34375 -4.59375 1.125 -4.59375 C 0.890625 -4.59375 0.734375 -4.390625 0.734375 -4.1875 C 0.734375 -3.96875 0.90625 -3.796875 1.125 -3.796875 C 1.359375 -3.796875 1.515625 -3.984375 1.515625 -4.1875 Z M 1.515625 -4.1875 "/>
</g>
<g id="glyph-5-6">
<path d="M 4.109375 0 L 4.109375 -0.25 C 3.65625 -0.25 3.578125 -0.25 3.578125 -0.546875 L 3.578125 -2.109375 C 3.578125 -2.71875 3.28125 -3.0625 2.53125 -3.0625 C 1.96875 -3.0625 1.59375 -2.75 1.40625 -2.390625 L 1.390625 -2.390625 L 1.390625 -3.0625 L 0.375 -2.984375 L 0.375 -2.734375 C 0.84375 -2.734375 0.890625 -2.6875 0.890625 -2.34375 L 0.890625 -0.546875 C 0.890625 -0.25 0.828125 -0.25 0.375 -0.25 L 0.375 0 C 0.375 0 0.875 -0.03125 1.171875 -0.03125 C 1.421875 -0.03125 1.90625 0 1.96875 0 L 1.96875 -0.25 C 1.515625 -0.25 1.453125 -0.25 1.453125 -0.546875 L 1.453125 -1.796875 C 1.453125 -2.53125 2.015625 -2.875 2.484375 -2.875 C 2.96875 -2.875 3.03125 -2.484375 3.03125 -2.140625 L 3.03125 -0.546875 C 3.03125 -0.25 2.96875 -0.25 2.515625 -0.25 L 2.515625 0 C 2.515625 0 3.015625 -0.03125 3.296875 -0.03125 C 3.5625 -0.03125 4.046875 0 4.109375 0 Z M 4.109375 0 "/>
</g>
<g id="glyph-5-7">
<path d="M 3.796875 -2.78125 C 3.796875 -2.9375 3.65625 -3.140625 3.375 -3.140625 C 3.28125 -3.140625 2.90625 -3.109375 2.578125 -2.8125 C 2.359375 -2.96875 2.078125 -3.0625 1.765625 -3.0625 C 1.046875 -3.0625 0.53125 -2.59375 0.53125 -2.046875 C 0.53125 -1.765625 0.671875 -1.515625 0.859375 -1.34375 C 0.8125 -1.28125 0.65625 -1.046875 0.65625 -0.78125 C 0.65625 -0.6875 0.671875 -0.359375 0.953125 -0.15625 C 0.625 -0.0625 0.265625 0.171875 0.265625 0.53125 C 0.265625 1.046875 1.03125 1.421875 1.96875 1.421875 C 2.859375 1.421875 3.671875 1.078125 3.671875 0.515625 C 3.671875 0.3125 3.59375 -0.0625 3.21875 -0.265625 C 2.796875 -0.484375 2.390625 -0.484375 1.71875 -0.484375 C 1.5625 -0.484375 1.3125 -0.484375 1.265625 -0.5 C 1.03125 -0.546875 0.90625 -0.75 0.90625 -0.953125 C 0.90625 -1.125 0.953125 -1.1875 1 -1.234375 C 1.109375 -1.171875 1.359375 -1.015625 1.765625 -1.015625 C 2.46875 -1.015625 3 -1.5 3 -2.046875 C 3 -2.3125 2.875 -2.53125 2.703125 -2.71875 C 3.015625 -2.9375 3.28125 -2.9375 3.40625 -2.9375 C 3.375 -2.90625 3.34375 -2.890625 3.34375 -2.78125 C 3.34375 -2.640625 3.453125 -2.546875 3.5625 -2.546875 C 3.671875 -2.546875 3.796875 -2.625 3.796875 -2.78125 Z M 2.4375 -2.046875 C 2.4375 -1.9375 2.4375 -1.65625 2.296875 -1.46875 C 2.203125 -1.359375 2.015625 -1.234375 1.765625 -1.234375 C 1.078125 -1.234375 1.078125 -1.890625 1.078125 -2.046875 C 1.078125 -2.15625 1.078125 -2.4375 1.21875 -2.609375 C 1.328125 -2.734375 1.515625 -2.859375 1.765625 -2.859375 C 2.4375 -2.859375 2.4375 -2.1875 2.4375 -2.046875 Z M 3.25 0.53125 C 3.25 0.890625 2.703125 1.21875 1.96875 1.21875 C 1.25 1.21875 0.703125 0.890625 0.703125 0.53125 C 0.703125 0.28125 0.921875 -0.015625 1.359375 -0.015625 L 1.765625 -0.015625 C 2.390625 -0.015625 3.25 -0.015625 3.25 0.53125 Z M 3.25 0.53125 "/>
</g>
<g id="glyph-5-8">
<path d="M 5.453125 -2.75 L 5.453125 -3 C 5.265625 -2.96875 5.15625 -2.96875 4.953125 -2.96875 C 4.734375 -2.96875 4.484375 -2.96875 4.265625 -3 L 4.265625 -2.75 C 4.515625 -2.734375 4.625 -2.609375 4.625 -2.4375 C 4.625 -2.390625 4.625 -2.375 4.59375 -2.28125 L 3.921875 -0.546875 L 3.15625 -2.4375 C 3.15625 -2.46875 3.125 -2.53125 3.125 -2.578125 C 3.125 -2.71875 3.3125 -2.75 3.5 -2.75 L 3.5 -3 C 3.25 -2.96875 3 -2.96875 2.75 -2.96875 C 2.546875 -2.96875 2.34375 -2.984375 2.140625 -3 L 2.140625 -2.75 C 2.296875 -2.75 2.453125 -2.75 2.53125 -2.6875 C 2.640625 -2.625 2.703125 -2.390625 2.703125 -2.390625 C 2.703125 -2.390625 2.6875 -2.328125 2.671875 -2.296875 L 2.015625 -0.640625 L 1.3125 -2.4375 C 1.265625 -2.53125 1.265625 -2.546875 1.265625 -2.578125 C 1.265625 -2.75 1.515625 -2.75 1.640625 -2.75 L 1.640625 -3 C 1.640625 -3 1.140625 -2.96875 0.859375 -2.96875 C 0.640625 -2.96875 0.421875 -2.96875 0.203125 -3 L 0.203125 -2.75 C 0.484375 -2.75 0.625 -2.75 0.703125 -2.546875 L 1.671875 -0.09375 C 1.71875 0.015625 1.734375 0.0625 1.859375 0.0625 C 1.984375 0.0625 2.015625 0.015625 2.046875 -0.078125 L 2.828125 -2.0625 L 3.609375 -0.09375 C 3.640625 0 3.671875 0.0625 3.796875 0.0625 C 3.921875 0.0625 3.9375 0.015625 3.984375 -0.09375 L 4.875 -2.328125 C 5 -2.671875 5.234375 -2.734375 5.453125 -2.75 Z M 5.453125 -2.75 "/>
</g>
<g id="glyph-5-9">
<path d="M 2.609375 1.640625 C 2.609375 1.609375 2.59375 1.59375 2.53125 1.546875 C 1.609375 0.703125 1.265625 -0.46875 1.265625 -1.734375 C 1.265625 -3.609375 1.984375 -4.53125 2.5625 -5.046875 C 2.59375 -5.078125 2.609375 -5.09375 2.609375 -5.125 C 2.609375 -5.21875 2.53125 -5.21875 2.46875 -5.21875 C 1.140625 -4.28125 0.796875 -2.8125 0.796875 -1.75 C 0.796875 -0.765625 1.09375 0.765625 2.46875 1.734375 C 2.53125 1.734375 2.609375 1.734375 2.609375 1.640625 Z M 2.609375 1.640625 "/>
</g>
<g id="glyph-5-10">
<path d="M 5.328125 -3.09375 L 5.1875 -4.703125 L 0.484375 -4.703125 L 0.328125 -3.09375 L 0.5625 -3.09375 C 0.671875 -4.296875 0.875 -4.453125 1.9375 -4.453125 C 2.078125 -4.453125 2.28125 -4.453125 2.34375 -4.4375 C 2.5 -4.421875 2.5 -4.34375 2.5 -4.171875 L 2.5 -0.5625 C 2.5 -0.34375 2.5 -0.25 1.78125 -0.25 L 1.484375 -0.25 L 1.484375 0 C 1.828125 -0.03125 2.46875 -0.03125 2.84375 -0.03125 C 3.203125 -0.03125 3.84375 -0.03125 4.171875 0 L 4.171875 -0.25 L 3.890625 -0.25 C 3.15625 -0.25 3.15625 -0.34375 3.15625 -0.5625 L 3.15625 -4.171875 C 3.15625 -4.34375 3.15625 -4.421875 3.3125 -4.4375 C 3.390625 -4.453125 3.59375 -4.453125 3.734375 -4.453125 C 4.109375 -4.453125 4.421875 -4.453125 4.65625 -4.3125 C 4.96875 -4.125 5.015625 -3.671875 5.03125 -3.640625 L 5.09375 -3.09375 Z M 5.328125 -3.09375 "/>
</g>
<g id="glyph-5-11">
<path d="M 4.109375 0 L 4.109375 -0.25 C 3.65625 -0.25 3.578125 -0.25 3.578125 -0.546875 L 3.578125 -2.109375 C 3.578125 -2.71875 3.28125 -3.0625 2.53125 -3.0625 C 1.921875 -3.0625 1.578125 -2.703125 1.421875 -2.4375 L 1.421875 -4.828125 L 0.375 -4.75 L 0.375 -4.5 C 0.84375 -4.5 0.890625 -4.453125 0.890625 -4.109375 L 0.890625 -0.546875 C 0.890625 -0.25 0.828125 -0.25 0.375 -0.25 L 0.375 0 C 0.375 0 0.875 -0.03125 1.171875 -0.03125 C 1.421875 -0.03125 1.90625 0 1.96875 0 L 1.96875 -0.25 C 1.515625 -0.25 1.453125 -0.25 1.453125 -0.546875 L 1.453125 -1.796875 C 1.453125 -2.53125 2.015625 -2.875 2.484375 -2.875 C 2.96875 -2.875 3.03125 -2.484375 3.03125 -2.140625 L 3.03125 -0.546875 C 3.03125 -0.25 2.96875 -0.25 2.515625 -0.25 L 2.515625 0 C 2.515625 0 3.015625 -0.03125 3.296875 -0.03125 C 3.5625 -0.03125 4.046875 0 4.109375 0 Z M 4.109375 0 "/>
</g>
<g id="glyph-5-12">
<path d="M 6.234375 0 L 6.234375 -0.25 C 5.78125 -0.25 5.71875 -0.25 5.71875 -0.546875 L 5.71875 -2.109375 C 5.71875 -2.71875 5.421875 -3.0625 4.671875 -3.0625 C 4.125 -3.0625 3.75 -2.765625 3.5625 -2.421875 C 3.421875 -2.90625 3.046875 -3.0625 2.53125 -3.0625 C 1.96875 -3.0625 1.59375 -2.75 1.40625 -2.390625 L 1.390625 -2.390625 L 1.390625 -3.0625 L 0.375 -2.984375 L 0.375 -2.734375 C 0.84375 -2.734375 0.890625 -2.6875 0.890625 -2.34375 L 0.890625 -0.546875 C 0.890625 -0.25 0.828125 -0.25 0.375 -0.25 L 0.375 0 C 0.375 0 0.875 -0.03125 1.171875 -0.03125 C 1.421875 -0.03125 1.90625 0 1.96875 0 L 1.96875 -0.25 C 1.515625 -0.25 1.453125 -0.25 1.453125 -0.546875 L 1.453125 -1.796875 C 1.453125 -2.53125 2.015625 -2.875 2.484375 -2.875 C 2.96875 -2.875 3.03125 -2.484375 3.03125 -2.140625 L 3.03125 -0.546875 C 3.03125 -0.25 2.96875 -0.25 2.515625 -0.25 L 2.515625 0 C 2.515625 0 3.015625 -0.03125 3.296875 -0.03125 C 3.5625 -0.03125 4.046875 0 4.109375 0 L 4.109375 -0.25 C 3.65625 -0.25 3.578125 -0.25 3.578125 -0.546875 L 3.578125 -1.796875 C 3.578125 -2.53125 4.15625 -2.875 4.609375 -2.875 C 5.109375 -2.875 5.171875 -2.484375 5.171875 -2.140625 L 5.171875 -0.546875 C 5.171875 -0.25 5.09375 -0.25 4.640625 -0.25 L 4.640625 0 C 4.640625 0 5.140625 -0.03125 5.4375 -0.03125 C 5.6875 -0.03125 6.171875 0 6.234375 0 Z M 6.234375 0 "/>
</g>
<g id="glyph-5-13">
<path d="M 3.578125 -1.203125 C 3.578125 -1.75 3.125 -2.28125 2.359375 -2.453125 C 3.09375 -2.71875 3.359375 -3.234375 3.359375 -3.65625 C 3.359375 -4.203125 2.71875 -4.609375 1.953125 -4.609375 C 1.1875 -4.609375 0.59375 -4.234375 0.59375 -3.6875 C 0.59375 -3.453125 0.75 -3.3125 0.953125 -3.3125 C 1.171875 -3.3125 1.3125 -3.484375 1.3125 -3.671875 C 1.3125 -3.875 1.171875 -4.015625 0.953125 -4.03125 C 1.203125 -4.34375 1.671875 -4.421875 1.9375 -4.421875 C 2.25 -4.421875 2.6875 -4.265625 2.6875 -3.65625 C 2.6875 -3.359375 2.59375 -3.046875 2.40625 -2.828125 C 2.171875 -2.5625 1.984375 -2.546875 1.640625 -2.53125 C 1.453125 -2.515625 1.453125 -2.515625 1.40625 -2.515625 C 1.40625 -2.515625 1.34375 -2.5 1.34375 -2.421875 C 1.34375 -2.328125 1.40625 -2.328125 1.515625 -2.328125 L 1.890625 -2.328125 C 2.4375 -2.328125 2.828125 -1.953125 2.828125 -1.203125 C 2.828125 -0.34375 2.328125 -0.078125 1.921875 -0.078125 C 1.640625 -0.078125 1.03125 -0.15625 0.75 -0.5625 C 1.078125 -0.578125 1.140625 -0.8125 1.140625 -0.953125 C 1.140625 -1.1875 0.984375 -1.34375 0.765625 -1.34375 C 0.5625 -1.34375 0.375 -1.21875 0.375 -0.9375 C 0.375 -0.28125 1.09375 0.140625 1.9375 0.140625 C 2.90625 0.140625 3.578125 -0.5 3.578125 -1.203125 Z M 3.578125 -1.203125 "/>
</g>
<g id="glyph-5-14">
<path d="M 1.515625 -0.390625 C 1.515625 -0.640625 1.328125 -0.796875 1.125 -0.796875 C 0.890625 -0.796875 0.71875 -0.609375 0.71875 -0.40625 C 0.71875 -0.15625 0.921875 0 1.125 0 C 1.359375 0 1.515625 -0.1875 1.515625 -0.390625 Z M 1.515625 -0.390625 "/>
</g>
<g id="glyph-5-15">
<path d="M 3.28125 0 L 3.28125 -0.25 L 3.03125 -0.25 C 2.328125 -0.25 2.328125 -0.34375 2.328125 -0.5625 L 2.328125 -4.421875 C 2.328125 -4.609375 2.3125 -4.609375 2.125 -4.609375 C 1.671875 -4.171875 1.046875 -4.171875 0.765625 -4.171875 L 0.765625 -3.921875 C 0.921875 -3.921875 1.390625 -3.921875 1.765625 -4.109375 L 1.765625 -0.5625 C 1.765625 -0.34375 1.765625 -0.25 1.078125 -0.25 L 0.8125 -0.25 L 0.8125 0 L 2.046875 -0.03125 Z M 3.28125 0 "/>
</g>
<g id="glyph-5-16">
<path d="M 2.296875 -1.734375 C 2.296875 -2.71875 2 -4.234375 0.625 -5.21875 C 0.578125 -5.21875 0.5 -5.21875 0.5 -5.125 C 0.5 -5.09375 0.515625 -5.078125 0.5625 -5.03125 C 1.15625 -4.484375 1.828125 -3.546875 1.828125 -1.75 C 1.828125 -0.296875 1.375 0.8125 0.625 1.484375 C 0.5 1.609375 0.5 1.609375 0.5 1.640625 C 0.5 1.6875 0.515625 1.734375 0.578125 1.734375 C 0.671875 1.734375 1.328125 1.265625 1.78125 0.40625 C 2.09375 -0.171875 2.296875 -0.921875 2.296875 -1.734375 Z M 2.296875 -1.734375 "/>
</g>
<g id="glyph-5-17">
<path d="M 2.828125 -0.90625 C 2.828125 -1.171875 2.71875 -1.390625 2.53125 -1.546875 C 2.265625 -1.796875 1.953125 -1.84375 1.703125 -1.890625 C 1.140625 -1.984375 0.703125 -2.078125 0.703125 -2.4375 C 0.703125 -2.65625 0.890625 -2.9375 1.546875 -2.9375 C 2.34375 -2.9375 2.390625 -2.375 2.40625 -2.171875 C 2.40625 -2.09375 2.484375 -2.09375 2.515625 -2.09375 C 2.640625 -2.09375 2.640625 -2.140625 2.640625 -2.28125 L 2.640625 -2.921875 C 2.640625 -3.03125 2.640625 -3.09375 2.53125 -3.09375 C 2.5 -3.09375 2.484375 -3.09375 2.40625 -3.015625 C 2.390625 -3.015625 2.3125 -2.953125 2.28125 -2.90625 C 2.0625 -3.0625 1.796875 -3.09375 1.546875 -3.09375 C 0.546875 -3.09375 0.3125 -2.578125 0.3125 -2.234375 C 0.3125 -2.015625 0.40625 -1.828125 0.578125 -1.6875 C 0.84375 -1.453125 1.109375 -1.40625 1.53125 -1.34375 C 1.890625 -1.28125 2.453125 -1.1875 2.453125 -0.71875 C 2.453125 -0.4375 2.265625 -0.125 1.59375 -0.125 C 0.921875 -0.125 0.6875 -0.5625 0.5625 -1.03125 C 0.53125 -1.125 0.53125 -1.15625 0.4375 -1.15625 C 0.3125 -1.15625 0.3125 -1.109375 0.3125 -0.96875 L 0.3125 -0.109375 C 0.3125 0 0.3125 0.0625 0.40625 0.0625 C 0.46875 0.0625 0.609375 -0.078125 0.75 -0.234375 C 1.046875 0.0625 1.421875 0.0625 1.59375 0.0625 C 2.5 0.0625 2.828125 -0.421875 2.828125 -0.90625 Z M 2.828125 -0.90625 "/>
</g>
<g id="glyph-5-18">
<path d="M 3.78125 -0.625 L 3.78125 -1.015625 L 3.546875 -1.015625 L 3.546875 -0.625 C 3.546875 -0.5625 3.546875 -0.234375 3.28125 -0.234375 C 3.03125 -0.234375 3.03125 -0.5625 3.03125 -0.640625 L 3.03125 -1.859375 C 3.03125 -2.234375 3.03125 -2.5 2.71875 -2.75 C 2.421875 -2.984375 2.09375 -3.09375 1.6875 -3.09375 C 1.015625 -3.09375 0.5625 -2.84375 0.5625 -2.421875 C 0.5625 -2.203125 0.703125 -2.09375 0.890625 -2.09375 C 1.078125 -2.09375 1.21875 -2.21875 1.21875 -2.40625 C 1.21875 -2.53125 1.15625 -2.671875 0.96875 -2.734375 C 1.21875 -2.90625 1.625 -2.90625 1.671875 -2.90625 C 2.0625 -2.90625 2.484375 -2.65625 2.484375 -2.0625 L 2.484375 -1.84375 C 2.09375 -1.828125 1.640625 -1.8125 1.140625 -1.625 C 0.5 -1.390625 0.3125 -1.015625 0.3125 -0.703125 C 0.3125 -0.109375 1.03125 0.0625 1.53125 0.0625 C 2.09375 0.0625 2.40625 -0.25 2.5625 -0.515625 C 2.59375 -0.234375 2.78125 0.03125 3.09375 0.03125 C 3.09375 0.03125 3.78125 0.03125 3.78125 -0.625 Z M 2.484375 -0.984375 C 2.484375 -0.3125 1.890625 -0.125 1.578125 -0.125 C 1.234375 -0.125 0.890625 -0.359375 0.890625 -0.703125 C 0.890625 -1.078125 1.234375 -1.625 2.484375 -1.671875 Z M 2.484375 -0.984375 "/>
</g>
<g id="glyph-5-19">
<path d="M 2.828125 -2.625 C 2.828125 -2.859375 2.609375 -3.0625 2.28125 -3.0625 C 1.9375 -3.0625 1.546875 -2.84375 1.34375 -2.328125 L 1.328125 -2.328125 L 1.328125 -3.0625 L 0.34375 -2.984375 L 0.34375 -2.734375 C 0.8125 -2.734375 0.859375 -2.6875 0.859375 -2.34375 L 0.859375 -0.546875 C 0.859375 -0.25 0.796875 -0.25 0.34375 -0.25 L 0.34375 0 C 0.375 0 0.84375 -0.03125 1.140625 -0.03125 L 2.03125 0 L 2.03125 -0.25 L 1.890625 -0.25 C 1.390625 -0.25 1.390625 -0.328125 1.390625 -0.5625 L 1.390625 -1.578125 C 1.390625 -2.171875 1.65625 -2.875 2.3125 -2.875 C 2.25 -2.828125 2.203125 -2.734375 2.203125 -2.625 C 2.203125 -2.390625 2.375 -2.296875 2.515625 -2.296875 C 2.671875 -2.296875 2.828125 -2.40625 2.828125 -2.625 Z M 2.828125 -2.625 "/>
</g>
<g id="glyph-5-20">
<path d="M 4.0625 -1.5 C 4.0625 -2.359375 3.34375 -3.0625 2.46875 -3.0625 C 2.078125 -3.0625 1.671875 -2.921875 1.390625 -2.640625 L 1.390625 -3.0625 L 0.34375 -2.984375 L 0.34375 -2.734375 C 0.828125 -2.734375 0.859375 -2.703125 0.859375 -2.40625 L 0.859375 0.796875 C 0.859375 1.09375 0.796875 1.09375 0.34375 1.09375 L 0.34375 1.34375 C 0.34375 1.34375 0.84375 1.328125 1.140625 1.328125 C 1.390625 1.328125 1.875 1.34375 1.9375 1.34375 L 1.9375 1.09375 C 1.484375 1.09375 1.40625 1.09375 1.40625 0.796875 L 1.40625 -0.328125 C 1.453125 -0.296875 1.765625 0.0625 2.359375 0.0625 C 3.28125 0.0625 4.0625 -0.625 4.0625 -1.5 Z M 3.421875 -1.5 C 3.421875 -0.703125 2.90625 -0.125 2.3125 -0.125 C 1.703125 -0.125 1.4375 -0.65625 1.40625 -0.703125 L 1.40625 -2.3125 C 1.625 -2.65625 2.015625 -2.84375 2.390625 -2.84375 C 2.96875 -2.84375 3.421875 -2.234375 3.421875 -1.5 Z M 3.421875 -1.5 "/>
</g>
<g id="glyph-5-21">
<path d="M 3.953125 -2.75 L 3.953125 -3 C 3.75 -2.984375 3.625 -2.96875 3.421875 -2.96875 C 3.234375 -2.96875 2.96875 -2.96875 2.78125 -3 L 2.78125 -2.75 C 3.015625 -2.734375 3.078125 -2.59375 3.078125 -2.484375 C 3.078125 -2.40625 3.03125 -2.34375 3.015625 -2.265625 L 2.234375 -0.625 L 1.390625 -2.453125 C 1.359375 -2.5 1.34375 -2.53125 1.34375 -2.59375 C 1.34375 -2.75 1.578125 -2.75 1.703125 -2.75 L 1.703125 -3 L 0.890625 -2.96875 C 0.6875 -2.96875 0.421875 -2.96875 0.21875 -3 L 0.21875 -2.75 C 0.609375 -2.75 0.6875 -2.71875 0.78125 -2.5 L 1.953125 0 C 1.890625 0.140625 1.828125 0.265625 1.765625 0.40625 C 1.609375 0.75 1.390625 1.21875 0.90625 1.21875 C 0.734375 1.21875 0.6875 1.1875 0.609375 1.140625 C 0.609375 1.140625 0.8125 1.078125 0.8125 0.84375 C 0.8125 0.671875 0.6875 0.546875 0.515625 0.546875 C 0.328125 0.546875 0.203125 0.671875 0.203125 0.84375 C 0.203125 1.171875 0.53125 1.421875 0.90625 1.421875 C 1.5 1.421875 1.84375 0.796875 1.9375 0.59375 L 3.28125 -2.3125 C 3.484375 -2.734375 3.84375 -2.75 3.953125 -2.75 Z M 3.953125 -2.75 "/>
</g>
<g id="glyph-5-22">
<path d="M 4.0625 -1.5 C 4.0625 -2.34375 3.34375 -3.0625 2.4375 -3.0625 C 2.015625 -3.0625 1.640625 -2.90625 1.390625 -2.65625 L 1.390625 -4.828125 L 0.34375 -4.75 L 0.34375 -4.5 C 0.8125 -4.5 0.859375 -4.4375 0.859375 -4.09375 L 0.859375 0 L 1.09375 0 L 1.34375 -0.421875 C 1.609375 -0.078125 1.984375 0.0625 2.359375 0.0625 C 3.28125 0.0625 4.0625 -0.625 4.0625 -1.5 Z M 3.421875 -1.515625 C 3.421875 -1.34375 3.421875 -0.828125 3.140625 -0.5 C 2.859375 -0.1875 2.53125 -0.125 2.328125 -0.125 C 1.765625 -0.125 1.484375 -0.5625 1.40625 -0.703125 L 1.40625 -2.328125 C 1.609375 -2.65625 1.984375 -2.875 2.40625 -2.875 C 2.78125 -2.875 3.0625 -2.65625 3.203125 -2.4375 C 3.34375 -2.234375 3.421875 -1.96875 3.421875 -1.515625 Z M 3.421875 -1.515625 "/>
</g>
<g id="glyph-5-23">
<path d="M 4.109375 0 L 4.109375 -0.25 C 3.640625 -0.25 3.578125 -0.296875 3.578125 -0.640625 L 3.578125 -3.0625 L 2.515625 -2.984375 L 2.515625 -2.734375 C 2.96875 -2.734375 3.03125 -2.6875 3.03125 -2.34375 L 3.03125 -1.15625 C 3.03125 -0.546875 2.640625 -0.125 2.109375 -0.125 C 1.46875 -0.125 1.453125 -0.421875 1.453125 -0.78125 L 1.453125 -3.0625 L 0.375 -2.984375 L 0.375 -2.734375 C 0.890625 -2.734375 0.890625 -2.71875 0.890625 -2.09375 L 0.890625 -1.0625 C 0.890625 -0.578125 0.890625 0.0625 2.0625 0.0625 C 2.21875 0.0625 2.71875 0.0625 3.046875 -0.515625 L 3.0625 -0.515625 L 3.0625 0.0625 Z M 4.109375 0 "/>
</g>
<g id="glyph-5-24">
<path d="M 1.609375 -0.046875 C 1.609375 -0.453125 1.453125 -0.796875 1.125 -0.796875 C 0.875 -0.796875 0.71875 -0.609375 0.71875 -0.390625 C 0.71875 -0.234375 0.828125 0 1.125 0 C 1.296875 0 1.40625 -0.109375 1.40625 -0.109375 C 1.40625 0.078125 1.40625 0.671875 0.875 1.15625 C 0.84375 1.1875 0.828125 1.203125 0.828125 1.25 C 0.828125 1.28125 0.875 1.34375 0.921875 1.34375 C 1.015625 1.34375 1.609375 0.796875 1.609375 -0.046875 Z M 1.609375 -0.046875 "/>
</g>
<g id="glyph-5-25">
<path d="M 2.765625 -4.390625 C 2.765625 -4.6875 2.46875 -4.890625 2.09375 -4.890625 C 1.53125 -4.890625 0.90625 -4.5 0.90625 -3.78125 L 0.90625 -3 L 0.3125 -3 L 0.3125 -2.75 L 0.90625 -2.75 L 0.90625 -0.546875 C 0.90625 -0.25 0.84375 -0.25 0.390625 -0.25 L 0.390625 0 C 0.421875 0 0.890625 -0.03125 1.1875 -0.03125 L 2.09375 0 L 2.09375 -0.25 L 1.953125 -0.25 C 1.4375 -0.25 1.4375 -0.328125 1.4375 -0.5625 L 1.4375 -2.75 L 2.296875 -2.75 L 2.296875 -3 L 1.40625 -3 L 1.40625 -3.78125 C 1.40625 -4.40625 1.78125 -4.703125 2.078125 -4.703125 C 2.140625 -4.703125 2.21875 -4.6875 2.28125 -4.671875 C 2.1875 -4.609375 2.125 -4.5 2.125 -4.390625 C 2.125 -4.203125 2.265625 -4.0625 2.453125 -4.0625 C 2.640625 -4.0625 2.765625 -4.203125 2.765625 -4.390625 Z M 2.765625 -4.390625 "/>
</g>
<g id="glyph-5-26">
<path d="M 3.984375 0 L 3.984375 -0.25 C 3.53125 -0.25 3.46875 -0.296875 3.3125 -0.46875 L 2.359375 -1.5625 L 2.296875 -1.625 C 2.296875 -1.640625 2.765625 -2.140625 2.828125 -2.203125 C 3.0625 -2.46875 3.3125 -2.734375 3.859375 -2.75 L 3.859375 -3 C 3.671875 -2.984375 3.46875 -2.96875 3.28125 -2.96875 C 3.0625 -2.96875 2.796875 -2.96875 2.59375 -3 L 2.59375 -2.75 C 2.703125 -2.71875 2.71875 -2.65625 2.71875 -2.59375 C 2.71875 -2.59375 2.71875 -2.46875 2.625 -2.34375 L 2.140625 -1.796875 L 1.5625 -2.46875 C 1.484375 -2.53125 1.484375 -2.578125 1.484375 -2.59375 C 1.484375 -2.703125 1.578125 -2.75 1.671875 -2.75 L 1.671875 -3 C 1.40625 -2.96875 1.140625 -2.96875 0.890625 -2.96875 C 0.6875 -2.96875 0.421875 -2.96875 0.21875 -3 L 0.21875 -2.75 C 0.53125 -2.75 0.71875 -2.75 0.890625 -2.53125 L 1.765625 -1.53125 L 1.828125 -1.46875 C 1.828125 -1.453125 1.296875 -0.875 1.234375 -0.796875 C 0.96875 -0.515625 0.734375 -0.265625 0.1875 -0.25 L 0.1875 0 C 0.390625 -0.015625 0.546875 -0.03125 0.765625 -0.03125 C 0.96875 -0.03125 1.25 -0.015625 1.453125 0 L 1.453125 -0.25 C 1.375 -0.265625 1.3125 -0.3125 1.3125 -0.40625 C 1.3125 -0.546875 1.390625 -0.625 1.5 -0.75 L 1.984375 -1.28125 L 2.59375 -0.59375 C 2.71875 -0.453125 2.71875 -0.4375 2.71875 -0.390625 C 2.71875 -0.25 2.5625 -0.25 2.53125 -0.25 L 2.53125 0 C 2.59375 0 3.09375 -0.03125 3.328125 -0.03125 C 3.546875 -0.03125 3.765625 -0.015625 3.984375 0 Z M 3.984375 0 "/>
</g>
<g id="glyph-5-27">
<path d="M 2.609375 -0.875 L 2.609375 -1.265625 L 2.375 -1.265625 L 2.375 -0.890625 C 2.375 -0.40625 2.15625 -0.15625 1.875 -0.15625 C 1.390625 -0.15625 1.390625 -0.734375 1.390625 -0.859375 L 1.390625 -2.75 L 2.484375 -2.75 L 2.484375 -3 L 1.390625 -3 L 1.390625 -4.28125 L 1.15625 -4.28125 C 1.15625 -3.65625 0.875 -2.96875 0.203125 -2.9375 L 0.203125 -2.75 L 0.84375 -2.75 L 0.84375 -0.875 C 0.84375 -0.09375 1.4375 0.0625 1.828125 0.0625 C 2.28125 0.0625 2.609375 -0.328125 2.609375 -0.875 Z M 2.609375 -0.875 "/>
</g>
<g id="glyph-5-28">
<path d="M 3.515625 -1.265625 L 3.28125 -1.265625 C 3.25 -1.109375 3.1875 -0.703125 3.09375 -0.625 C 3.03125 -0.59375 2.5 -0.59375 2.40625 -0.59375 L 1.125 -0.59375 C 1.859375 -1.234375 2.09375 -1.4375 2.515625 -1.765625 C 3.03125 -2.171875 3.515625 -2.59375 3.515625 -3.265625 C 3.515625 -4.109375 2.78125 -4.609375 1.890625 -4.609375 C 1.015625 -4.609375 0.4375 -4.015625 0.4375 -3.375 C 0.4375 -3.015625 0.734375 -2.984375 0.8125 -2.984375 C 0.96875 -2.984375 1.171875 -3.09375 1.171875 -3.34375 C 1.171875 -3.484375 1.125 -3.71875 0.765625 -3.71875 C 0.984375 -4.21875 1.453125 -4.359375 1.78125 -4.359375 C 2.46875 -4.359375 2.84375 -3.828125 2.84375 -3.265625 C 2.84375 -2.65625 2.40625 -2.171875 2.1875 -1.921875 L 0.5 -0.265625 C 0.4375 -0.203125 0.4375 -0.1875 0.4375 0 L 3.296875 0 Z M 3.515625 -1.265625 "/>
</g>
<g id="glyph-5-29">
<path d="M 3.578125 -1.34375 C 3.578125 -1.9375 3.09375 -2.375 2.546875 -2.609375 L 1.828125 -2.921875 C 1.46875 -3.078125 1.109375 -3.34375 1.109375 -3.71875 C 1.109375 -4.1875 1.484375 -4.578125 1.953125 -4.578125 C 2.34375 -4.578125 2.6875 -4.359375 2.84375 -4.015625 L 2.796875 -4.015625 C 2.609375 -4.015625 2.46875 -3.859375 2.46875 -3.671875 C 2.46875 -3.484375 2.609375 -3.34375 2.796875 -3.34375 C 2.984375 -3.34375 3.140625 -3.484375 3.140625 -3.671875 C 3.140625 -4.359375 2.625 -4.953125 1.953125 -4.953125 C 1.234375 -4.953125 0.640625 -4.421875 0.640625 -3.71875 C 0.640625 -3.421875 0.75 -3.15625 0.921875 -2.9375 C 0.578125 -2.78125 0.3125 -2.5 0.3125 -2.125 C 0.3125 -1.546875 0.796875 -1.109375 1.34375 -0.859375 L 2.0625 -0.546875 C 2.421875 -0.390625 2.78125 -0.140625 2.78125 0.25 C 2.78125 0.71875 2.40625 1.109375 1.953125 1.109375 C 1.546875 1.109375 1.203125 0.875 1.0625 0.53125 L 1.09375 0.53125 C 1.28125 0.53125 1.421875 0.390625 1.421875 0.203125 C 1.421875 0.015625 1.28125 -0.125 1.09375 -0.125 C 0.90625 -0.125 0.765625 0.015625 0.765625 0.203125 C 0.765625 0.890625 1.265625 1.484375 1.953125 1.484375 C 2.65625 1.484375 3.25 0.9375 3.25 0.25 C 3.25 -0.046875 3.15625 -0.3125 2.96875 -0.53125 C 3.3125 -0.703125 3.578125 -0.984375 3.578125 -1.34375 Z M 2.984375 -1.34375 C 2.984375 -1.109375 2.9375 -0.875 2.796875 -0.734375 C 2.65625 -0.875 2.46875 -0.984375 2.28125 -1.0625 L 1.578125 -1.375 C 1.234375 -1.515625 0.90625 -1.765625 0.90625 -2.125 C 0.90625 -2.359375 0.953125 -2.59375 1.09375 -2.734375 C 1.25 -2.609375 1.421875 -2.5 1.609375 -2.40625 L 2.328125 -2.09375 C 2.65625 -1.953125 2.984375 -1.703125 2.984375 -1.34375 Z M 2.984375 -1.34375 "/>
</g>
<g id="glyph-5-30">
<path d="M 3.515625 -1.390625 C 3.515625 -2.1875 2.90625 -2.90625 2.046875 -2.90625 C 1.75 -2.90625 1.390625 -2.828125 1.078125 -2.5625 L 1.078125 -3.875 C 1.4375 -3.796875 1.640625 -3.796875 1.75 -3.796875 C 2.671875 -3.796875 3.21875 -4.421875 3.21875 -4.515625 C 3.21875 -4.59375 3.15625 -4.609375 3.125 -4.609375 C 3.125 -4.609375 3.09375 -4.609375 3.078125 -4.59375 C 2.90625 -4.53125 2.53125 -4.390625 2.015625 -4.390625 C 1.828125 -4.390625 1.453125 -4.40625 1.015625 -4.578125 C 0.9375 -4.609375 0.921875 -4.609375 0.921875 -4.609375 C 0.828125 -4.609375 0.828125 -4.546875 0.828125 -4.421875 L 0.828125 -2.375 C 0.828125 -2.265625 0.828125 -2.171875 0.9375 -2.171875 C 1 -2.171875 1.015625 -2.1875 1.078125 -2.28125 C 1.375 -2.65625 1.796875 -2.71875 2.046875 -2.71875 C 2.46875 -2.71875 2.65625 -2.375 2.6875 -2.328125 C 2.8125 -2.09375 2.84375 -1.828125 2.84375 -1.421875 C 2.84375 -1.21875 2.84375 -0.8125 2.640625 -0.5 C 2.46875 -0.25 2.171875 -0.078125 1.828125 -0.078125 C 1.375 -0.078125 0.90625 -0.328125 0.734375 -0.796875 C 1 -0.765625 1.140625 -0.953125 1.140625 -1.140625 C 1.140625 -1.4375 0.875 -1.484375 0.78125 -1.484375 C 0.78125 -1.484375 0.4375 -1.484375 0.4375 -1.109375 C 0.4375 -0.484375 1.015625 0.140625 1.84375 0.140625 C 2.734375 0.140625 3.515625 -0.515625 3.515625 -1.390625 Z M 3.515625 -1.390625 "/>
</g>
<g id="glyph-5-31">
<path d="M 3.671875 -1.140625 L 3.671875 -1.390625 L 2.90625 -1.390625 L 2.90625 -4.484375 C 2.90625 -4.640625 2.90625 -4.6875 2.75 -4.6875 C 2.671875 -4.6875 2.640625 -4.6875 2.578125 -4.59375 L 0.265625 -1.390625 L 0.265625 -1.140625 L 2.3125 -1.140625 L 2.3125 -0.5625 C 2.3125 -0.328125 2.3125 -0.25 1.75 -0.25 L 1.5625 -0.25 L 1.5625 0 L 2.609375 -0.03125 L 3.65625 0 L 3.65625 -0.25 L 3.46875 -0.25 C 2.90625 -0.25 2.90625 -0.328125 2.90625 -0.5625 L 2.90625 -1.140625 Z M 2.359375 -1.390625 L 0.53125 -1.390625 L 2.359375 -3.9375 Z M 2.359375 -1.390625 "/>
</g>
<g id="glyph-5-32">
<path d="M 3.578125 -1.421875 C 3.578125 -2.296875 2.875 -2.953125 2.0625 -2.953125 C 1.5 -2.953125 1.203125 -2.59375 1.046875 -2.28125 C 1.046875 -2.84375 1.09375 -3.359375 1.359375 -3.78125 C 1.59375 -4.15625 1.96875 -4.421875 2.40625 -4.421875 C 2.625 -4.421875 2.90625 -4.359375 3.03125 -4.171875 C 2.859375 -4.15625 2.71875 -4.046875 2.71875 -3.84375 C 2.71875 -3.671875 2.84375 -3.515625 3.046875 -3.515625 C 3.25 -3.515625 3.375 -3.65625 3.375 -3.859375 C 3.375 -4.25 3.09375 -4.609375 2.40625 -4.609375 C 1.390625 -4.609375 0.375 -3.703125 0.375 -2.203125 C 0.375 -0.40625 1.21875 0.140625 1.984375 0.140625 C 2.84375 0.140625 3.578125 -0.5 3.578125 -1.421875 Z M 2.90625 -1.421875 C 2.90625 -1.015625 2.90625 -0.734375 2.71875 -0.453125 C 2.546875 -0.21875 2.328125 -0.078125 1.984375 -0.078125 C 1.640625 -0.078125 1.375 -0.28125 1.21875 -0.59375 C 1.125 -0.796875 1.0625 -1.140625 1.0625 -1.5625 C 1.0625 -2.234375 1.46875 -2.765625 2.015625 -2.765625 C 2.34375 -2.765625 2.5625 -2.640625 2.734375 -2.375 C 2.90625 -2.109375 2.90625 -1.828125 2.90625 -1.421875 Z M 2.90625 -1.421875 "/>
</g>
<g id="glyph-6-0">
<path d="M 5.453125 -1.734375 C 5.453125 -1.90625 5.296875 -1.90625 5.1875 -1.90625 L 1.015625 -1.90625 C 0.90625 -1.90625 0.75 -1.90625 0.75 -1.734375 C 0.75 -1.578125 0.921875 -1.578125 1.015625 -1.578125 L 5.1875 -1.578125 C 5.28125 -1.578125 5.453125 -1.578125 5.453125 -1.734375 Z M 5.453125 -1.734375 "/>
</g>
<g id="glyph-7-0">
<path d="M 3.28125 0 L 3.28125 -0.25 L 3.03125 -0.25 C 2.328125 -0.25 2.328125 -0.34375 2.328125 -0.5625 L 2.328125 -4.421875 C 2.328125 -4.609375 2.3125 -4.609375 2.125 -4.609375 C 1.671875 -4.171875 1.046875 -4.171875 0.765625 -4.171875 L 0.765625 -3.921875 C 0.921875 -3.921875 1.390625 -3.921875 1.765625 -4.109375 L 1.765625 -0.5625 C 1.765625 -0.34375 1.765625 -0.25 1.078125 -0.25 L 0.8125 -0.25 L 0.8125 0 L 2.046875 -0.03125 Z M 3.28125 0 "/>
</g>
<g id="glyph-7-1">
<path d="M 5.609375 -2.515625 C 5.609375 -2.671875 5.4375 -2.671875 5.34375 -2.671875 L 0.75 -2.671875 C 0.65625 -2.671875 0.484375 -2.671875 0.484375 -2.515625 C 0.484375 -2.34375 0.640625 -2.34375 0.75 -2.34375 L 5.34375 -2.34375 C 5.4375 -2.34375 5.609375 -2.34375 5.609375 -2.515625 Z M 5.609375 -0.96875 C 5.609375 -1.140625 5.4375 -1.140625 5.34375 -1.140625 L 0.75 -1.140625 C 0.640625 -1.140625 0.484375 -1.140625 0.484375 -0.96875 C 0.484375 -0.8125 0.65625 -0.8125 0.75 -0.8125 L 5.34375 -0.8125 C 5.4375 -0.8125 5.609375 -0.8125 5.609375 -0.96875 Z M 5.609375 -0.96875 "/>
</g>
<g id="glyph-7-2">
<path d="M 3.515625 -1.390625 C 3.515625 -2.1875 2.90625 -2.90625 2.046875 -2.90625 C 1.75 -2.90625 1.390625 -2.828125 1.078125 -2.5625 L 1.078125 -3.875 C 1.4375 -3.796875 1.640625 -3.796875 1.75 -3.796875 C 2.671875 -3.796875 3.21875 -4.421875 3.21875 -4.515625 C 3.21875 -4.59375 3.15625 -4.609375 3.125 -4.609375 C 3.125 -4.609375 3.09375 -4.609375 3.078125 -4.59375 C 2.90625 -4.53125 2.53125 -4.390625 2.015625 -4.390625 C 1.828125 -4.390625 1.453125 -4.40625 1.015625 -4.578125 C 0.9375 -4.609375 0.921875 -4.609375 0.921875 -4.609375 C 0.828125 -4.609375 0.828125 -4.546875 0.828125 -4.421875 L 0.828125 -2.375 C 0.828125 -2.265625 0.828125 -2.171875 0.9375 -2.171875 C 1 -2.171875 1.015625 -2.1875 1.078125 -2.28125 C 1.375 -2.65625 1.796875 -2.71875 2.046875 -2.71875 C 2.46875 -2.71875 2.65625 -2.375 2.6875 -2.328125 C 2.8125 -2.09375 2.84375 -1.828125 2.84375 -1.421875 C 2.84375 -1.21875 2.84375 -0.8125 2.640625 -0.5 C 2.46875 -0.25 2.171875 -0.078125 1.828125 -0.078125 C 1.375 -0.078125 0.90625 -0.328125 0.734375 -0.796875 C 1 -0.765625 1.140625 -0.953125 1.140625 -1.140625 C 1.140625 -1.4375 0.875 -1.484375 0.78125 -1.484375 C 0.78125 -1.484375 0.4375 -1.484375 0.4375 -1.109375 C 0.4375 -0.484375 1.015625 0.140625 1.84375 0.140625 C 2.734375 0.140625 3.515625 -0.515625 3.515625 -1.390625 Z M 3.515625 -1.390625 "/>
</g>
<g id="glyph-7-3">
<path d="M 2.609375 1.640625 C 2.609375 1.609375 2.59375 1.59375 2.53125 1.546875 C 1.609375 0.703125 1.265625 -0.46875 1.265625 -1.734375 C 1.265625 -3.609375 1.984375 -4.53125 2.5625 -5.046875 C 2.59375 -5.078125 2.609375 -5.09375 2.609375 -5.125 C 2.609375 -5.21875 2.53125 -5.21875 2.46875 -5.21875 C 1.140625 -4.28125 0.796875 -2.8125 0.796875 -1.75 C 0.796875 -0.765625 1.09375 0.765625 2.46875 1.734375 C 2.53125 1.734375 2.609375 1.734375 2.609375 1.640625 Z M 2.609375 1.640625 "/>
</g>
<g id="glyph-7-4">
<path d="M 2.296875 -1.734375 C 2.296875 -2.71875 2 -4.234375 0.625 -5.21875 C 0.578125 -5.21875 0.5 -5.21875 0.5 -5.125 C 0.5 -5.09375 0.515625 -5.078125 0.5625 -5.03125 C 1.15625 -4.484375 1.828125 -3.546875 1.828125 -1.75 C 1.828125 -0.296875 1.375 0.8125 0.625 1.484375 C 0.5 1.609375 0.5 1.609375 0.5 1.640625 C 0.5 1.6875 0.515625 1.734375 0.578125 1.734375 C 0.671875 1.734375 1.328125 1.265625 1.78125 0.40625 C 2.09375 -0.171875 2.296875 -0.921875 2.296875 -1.734375 Z M 2.296875 -1.734375 "/>
</g>
<g id="glyph-8-0">
<path d="M 2.984375 -1.59375 C 2.984375 -1.953125 2.984375 -3.3125 1.6875 -3.3125 C 0.390625 -3.3125 0.390625 -1.953125 0.390625 -1.59375 C 0.390625 -1.234375 0.390625 0.109375 1.6875 0.109375 C 2.984375 0.109375 2.984375 -1.234375 2.984375 -1.59375 Z M 2.484375 -1.65625 C 2.484375 -1.3125 2.484375 -0.90625 2.421875 -0.609375 C 2.28125 -0.125 1.890625 -0.046875 1.6875 -0.046875 C 1.5 -0.046875 1.09375 -0.125 0.96875 -0.625 C 0.890625 -0.890625 0.890625 -1.234375 0.890625 -1.65625 C 0.890625 -2.015625 0.890625 -2.359375 0.96875 -2.640625 C 1.09375 -3.0625 1.46875 -3.140625 1.6875 -3.140625 C 2.0625 -3.140625 2.328125 -2.953125 2.421875 -2.609375 C 2.484375 -2.359375 2.484375 -1.9375 2.484375 -1.65625 Z M 2.484375 -1.65625 "/>
</g>
<g id="glyph-8-1">
<path d="M 2.75 0 L 2.75 -0.21875 L 2.5 -0.21875 C 1.984375 -0.21875 1.984375 -0.265625 1.984375 -0.421875 L 1.984375 -3.15625 C 1.984375 -3.3125 1.96875 -3.3125 1.796875 -3.3125 C 1.453125 -2.984375 0.890625 -2.984375 0.796875 -2.984375 L 0.703125 -2.984375 L 0.703125 -2.765625 L 0.796875 -2.765625 C 0.90625 -2.765625 1.234375 -2.78125 1.515625 -2.90625 L 1.515625 -0.421875 C 1.515625 -0.265625 1.515625 -0.21875 1 -0.21875 L 0.75 -0.21875 L 0.75 0 C 1.015625 -0.015625 1.453125 -0.015625 1.75 -0.015625 C 2.03125 -0.015625 2.484375 -0.015625 2.75 0 Z M 2.75 0 "/>
</g>
<g id="glyph-8-2">
<path d="M 2.921875 -0.953125 L 2.71875 -0.953125 C 2.703125 -0.859375 2.65625 -0.5625 2.578125 -0.5 C 2.53125 -0.484375 2.109375 -0.484375 2.046875 -0.484375 L 1.0625 -0.484375 C 1.390625 -0.71875 1.765625 -1 2.0625 -1.203125 C 2.515625 -1.5 2.921875 -1.796875 2.921875 -2.328125 C 2.921875 -2.953125 2.328125 -3.3125 1.609375 -3.3125 C 0.9375 -3.3125 0.453125 -2.921875 0.453125 -2.4375 C 0.453125 -2.171875 0.671875 -2.125 0.734375 -2.125 C 0.875 -2.125 1.03125 -2.21875 1.03125 -2.421875 C 1.03125 -2.609375 0.90625 -2.703125 0.75 -2.71875 C 0.890625 -2.9375 1.171875 -3.09375 1.515625 -3.09375 C 2 -3.09375 2.390625 -2.796875 2.390625 -2.3125 C 2.390625 -1.890625 2.109375 -1.578125 1.71875 -1.25 L 0.515625 -0.234375 C 0.46875 -0.1875 0.453125 -0.1875 0.453125 -0.15625 L 0.453125 0 L 2.765625 0 Z M 2.921875 -0.953125 "/>
</g>
</g>
<clipPath id="clip-0">
<path clip-rule="nonzero" d="M 0.0898438 20 L 15 20 L 15 37 L 0.0898438 37 Z M 0.0898438 20 "/>
</clipPath>
</defs>
<path fill-rule="nonzero" fill="rgb(23.922729%, 25.097656%, 35.68573%)" fill-opacity="1" d="M 161.984375 0.496094 L 44.878906 0.496094 C 43.234375 0.496094 41.898438 1.828125 41.898438 3.472656 L 41.898438 12.40625 C 41.898438 14.050781 43.234375 15.382812 44.878906 15.382812 L 161.984375 15.382812 C 163.628906 15.382812 164.960938 14.050781 164.960938 12.40625 L 164.960938 3.472656 C 164.960938 1.828125 163.628906 0.496094 161.984375 0.496094 Z M 161.984375 0.496094 "/>
<g fill="rgb(100%, 100%, 100%)" fill-opacity="1">
<use xlink:href="#glyph-0-0" x="49.839041" y="10.175711"/>
</g>
<g fill="rgb(100%, 100%, 100%)" fill-opacity="1">
<use xlink:href="#glyph-0-1" x="56.307273" y="10.175711"/>
</g>
<g fill="rgb(100%, 100%, 100%)" fill-opacity="1">
<use xlink:href="#glyph-0-2" x="63.655384" y="10.175711"/>
</g>
<g fill="rgb(100%, 100%, 100%)" fill-opacity="1">
<use xlink:href="#glyph-0-3" x="72.460432" y="10.175711"/>
<use xlink:href="#glyph-0-4" x="77.158185" y="10.175711"/>
<use xlink:href="#glyph-0-5" x="82.008689" y="10.175711"/>
<use xlink:href="#glyph-0-6" x="84.944896" y="10.175711"/>
<use xlink:href="#glyph-0-5" x="87.881103" y="10.175711"/>
<use xlink:href="#glyph-0-7" x="90.81731" y="10.175711"/>
<use xlink:href="#glyph-0-8" x="96.689725" y="10.175711"/>
<use xlink:href="#glyph-0-9" x="101.975255" y="10.175711"/>
</g>
<g fill="rgb(100%, 100%, 100%)" fill-opacity="1">
<use xlink:href="#glyph-0-2" x="109.663706" y="10.175711"/>
<use xlink:href="#glyph-0-7" x="114.949236" y="10.175711"/>
</g>
<g fill="rgb(100%, 100%, 100%)" fill-opacity="1">
<use xlink:href="#glyph-1-0" x="124.350101" y="10.175711"/>
</g>
<g fill="rgb(100%, 100%, 100%)" fill-opacity="1">
<use xlink:href="#glyph-2-0" x="129.956573" y="11.167977"/>
</g>
<g fill="rgb(100%, 100%, 100%)" fill-opacity="1">
<use xlink:href="#glyph-3-0" x="136.966197" y="10.175711"/>
</g>
<g fill="rgb(100%, 100%, 100%)" fill-opacity="1">
<use xlink:href="#glyph-1-1" x="140.536632" y="10.175711"/>
</g>
<g fill="rgb(100%, 100%, 100%)" fill-opacity="1">
<use xlink:href="#glyph-1-2" x="145.575618" y="10.175711"/>
</g>
<g fill="rgb(100%, 100%, 100%)" fill-opacity="1">
<use xlink:href="#glyph-1-3" x="149.662368" y="10.175711"/>
</g>
<g fill="rgb(100%, 100%, 100%)" fill-opacity="1">
<use xlink:href="#glyph-3-1" x="153.453443" y="10.175711"/>
</g>
<path fill="none" stroke-width="0.3985" stroke-linecap="butt" stroke-linejoin="miter" stroke="rgb(54.116821%, 49.412537%, 41.96167%)" stroke-opacity="1" stroke-miterlimit="10" d="M 0.000383682 -0.0000435543 L 197.600506 -0.0000435543 " transform="matrix(0.996251, 0, 0, -0.996251, 7.41368, 175.12105)"/>
<path fill-rule="nonzero" fill="rgb(54.116821%, 49.412537%, 41.96167%)" fill-opacity="1" stroke-width="0.3985" stroke-linecap="butt" stroke-linejoin="miter" stroke="rgb(54.116821%, 49.412537%, 41.96167%)" stroke-opacity="1" stroke-miterlimit="10" d="M 5.100984 -0.0000435543 L 0.642866 1.678122 L 2.10538 -0.0000435543 L 0.642866 -1.67821 Z M 5.100984 -0.0000435543 " transform="matrix(0.996251, 0, 0, -0.996251, 202.273607, 175.12105)"/>
<g fill="rgb(23.922729%, 25.097656%, 35.68573%)" fill-opacity="1">
<use xlink:href="#glyph-4-0" x="211.425022" y="177.533971"/>
</g>
<path fill="none" stroke-width="0.3985" stroke-linecap="butt" stroke-linejoin="miter" stroke="rgb(54.116821%, 49.412537%, 41.96167%)" stroke-opacity="1" stroke-miterlimit="10" d="M 0.000383682 -0.0000435543 L 0.000383682 146.004317 " transform="matrix(0.996251, 0, 0, -0.996251, 7.41368, 175.12105)"/>
<path fill-rule="nonzero" fill="rgb(54.116821%, 49.412537%, 41.96167%)" fill-opacity="1" d="M 7.414062 26.578125 L 5.742188 31.019531 L 7.414062 29.5625 L 9.085938 31.019531 Z M 7.414062 26.578125 "/>
<g clip-path="url(#clip-0)">
<path fill="none" stroke-width="0.3985" stroke-linecap="butt" stroke-linejoin="miter" stroke="rgb(54.116821%, 49.412537%, 41.96167%)" stroke-opacity="1" stroke-miterlimit="10" d="M 5.102446 -0.000383682 L 0.644328 1.677782 L 2.106842 -0.000383682 L 0.644328 -1.67855 Z M 5.102446 -0.000383682 " transform="matrix(0, -0.996251, -0.996251, 0, 7.41368, 31.661444)"/>
</g>
<g fill="rgb(23.922729%, 25.097656%, 35.68573%)" fill-opacity="1">
<use xlink:href="#glyph-4-1" x="3.897909" y="22.509301"/>
</g>
<path fill-rule="nonzero" fill="rgb(85.882568%, 89.802551%, 94.119263%)" fill-opacity="1" d="M 148.617188 175.121094 L 148.617188 118.640625 L 199.449219 118.640625 L 199.449219 175.121094 Z M 148.617188 175.121094 "/>
<path fill-rule="nonzero" fill="rgb(94.900513%, 88.627625%, 74.116516%)" fill-opacity="1" d="M 7.414062 118.640625 L 7.414062 50.863281 L 199.449219 50.863281 L 199.449219 118.640625 Z M 7.414062 118.640625 "/>
<path fill="none" stroke-width="0.3985" stroke-linecap="butt" stroke-linejoin="miter" stroke="rgb(75.292969%, 33.724976%, 24.31488%)" stroke-opacity="1" stroke-dasharray="2.98883 2.98883" stroke-miterlimit="10" d="M 0.000383682 124.725329 L 192.758134 124.725329 " transform="matrix(0.996251, 0, 0, -0.996251, 7.41368, 175.12105)"/>
<g fill="rgb(60.392761%, 23.136902%, 16.471863%)" fill-opacity="1">
<use xlink:href="#glyph-5-0" x="118.523593" y="40.158889"/>
<use xlink:href="#glyph-5-1" x="122.479589" y="40.158889"/>
<use xlink:href="#glyph-5-2" x="124.726462" y="40.158889"/>
</g>
<g fill="rgb(60.392761%, 23.136902%, 16.471863%)" fill-opacity="1">
<use xlink:href="#glyph-5-3" x="131.785281" y="40.158889"/>
<use xlink:href="#glyph-5-4" x="135.313996" y="40.158889"/>
<use xlink:href="#glyph-5-5" x="138.842711" y="40.158889"/>
<use xlink:href="#glyph-5-1" x="141.089584" y="40.158889"/>
<use xlink:href="#glyph-5-5" x="143.336456" y="40.158889"/>
<use xlink:href="#glyph-5-6" x="145.583328" y="40.158889"/>
<use xlink:href="#glyph-5-7" x="149.9673" y="40.158889"/>
</g>
<g fill="rgb(60.392761%, 23.136902%, 16.471863%)" fill-opacity="1">
<use xlink:href="#glyph-4-2" x="156.598144" y="40.158889"/>
</g>
<g fill="rgb(60.392761%, 23.136902%, 16.471863%)" fill-opacity="1">
<use xlink:href="#glyph-6-0" x="165.447375" y="40.158889"/>
</g>
<g fill="rgb(60.392761%, 23.136902%, 16.471863%)" fill-opacity="1">
<use xlink:href="#glyph-7-0" x="173.457329" y="40.158889"/>
</g>
<g fill="rgb(60.392761%, 23.136902%, 16.471863%)" fill-opacity="1">
<use xlink:href="#glyph-7-1" x="179.678261" y="40.158889"/>
</g>
<g fill="rgb(60.392761%, 23.136902%, 16.471863%)" fill-opacity="1">
<use xlink:href="#glyph-7-0" x="188.029345" y="40.158889"/>
<use xlink:href="#glyph-7-0" x="191.985341" y="40.158889"/>
</g>
<path fill="none" stroke-width="0.79701" stroke-linecap="butt" stroke-linejoin="miter" stroke="rgb(22.744751%, 35.293579%, 47.059631%)" stroke-opacity="1" stroke-dasharray="2.98883 2.98883" stroke-miterlimit="10" d="M 0.000383682 56.692951 L 192.758134 56.692951 " transform="matrix(0.996251, 0, 0, -0.996251, 7.41368, 175.12105)"/>
<g fill="rgb(22.744751%, 35.293579%, 47.059631%)" fill-opacity="1">
<use xlink:href="#glyph-5-6" x="13.743861" y="110.212291"/>
<use xlink:href="#glyph-5-4" x="18.127833" y="110.212291"/>
<use xlink:href="#glyph-5-8" x="21.656548" y="110.212291"/>
</g>
<g fill="rgb(22.744751%, 35.293579%, 47.059631%)" fill-opacity="1">
<use xlink:href="#glyph-5-3" x="29.99721" y="110.212291"/>
<use xlink:href="#glyph-5-4" x="33.525925" y="110.212291"/>
<use xlink:href="#glyph-5-5" x="37.05464" y="110.212291"/>
<use xlink:href="#glyph-5-1" x="39.301513" y="110.212291"/>
<use xlink:href="#glyph-5-5" x="41.548385" y="110.212291"/>
<use xlink:href="#glyph-5-6" x="43.795257" y="110.212291"/>
<use xlink:href="#glyph-5-7" x="48.179229" y="110.212291"/>
</g>
<g fill="rgb(22.744751%, 35.293579%, 47.059631%)" fill-opacity="1">
<use xlink:href="#glyph-4-3" x="54.810073" y="110.212291"/>
</g>
<g fill="rgb(22.744751%, 35.293579%, 47.059631%)" fill-opacity="1">
<use xlink:href="#glyph-6-0" x="61.522899" y="110.212291"/>
</g>
<g fill="rgb(22.744751%, 35.293579%, 47.059631%)" fill-opacity="1">
<use xlink:href="#glyph-7-0" x="69.532853" y="110.212291"/>
</g>
<g fill="rgb(22.744751%, 35.293579%, 47.059631%)" fill-opacity="1">
<use xlink:href="#glyph-7-1" x="75.746838" y="110.212291"/>
</g>
<g fill="rgb(22.744751%, 35.293579%, 47.059631%)" fill-opacity="1">
<use xlink:href="#glyph-7-2" x="84.10487" y="110.212291"/>
</g>
<g fill="rgb(22.744751%, 35.293579%, 47.059631%)" fill-opacity="1">
<use xlink:href="#glyph-5-9" x="92.931173" y="110.212291"/>
<use xlink:href="#glyph-5-10" x="96.032607" y="110.212291"/>
<use xlink:href="#glyph-5-11" x="101.698422" y="110.212291"/>
<use xlink:href="#glyph-5-12" x="106.082394" y="110.212291"/>
</g>
<g fill="rgb(22.744751%, 35.293579%, 47.059631%)" fill-opacity="1">
<use xlink:href="#glyph-5-13" x="115.277618" y="110.212291"/>
<use xlink:href="#glyph-5-14" x="119.233614" y="110.212291"/>
<use xlink:href="#glyph-5-15" x="121.480486" y="110.212291"/>
<use xlink:href="#glyph-5-16" x="125.436482" y="110.212291"/>
</g>
<g fill="rgb(54.116821%, 41.569519%, 12.156677%)" fill-opacity="1">
<use xlink:href="#glyph-5-17" x="50.619106" y="78.479695"/>
<use xlink:href="#glyph-5-11" x="53.763616" y="78.479695"/>
<use xlink:href="#glyph-5-18" x="58.147587" y="78.479695"/>
<use xlink:href="#glyph-5-19" x="62.103583" y="78.479695"/>
<use xlink:href="#glyph-5-20" x="65.205017" y="78.479695"/>
</g>
<g fill="rgb(54.116821%, 41.569519%, 12.156677%)" fill-opacity="1">
<use xlink:href="#glyph-5-4" x="69.804366" y="78.479695"/>
<use xlink:href="#glyph-5-6" x="73.333082" y="78.479695"/>
<use xlink:href="#glyph-5-4" x="77.717053" y="78.479695"/>
<use xlink:href="#glyph-5-2" x="81.245768" y="78.479695"/>
</g>
<g fill="rgb(54.116821%, 41.569519%, 12.156677%)" fill-opacity="1">
<use xlink:href="#glyph-5-18" x="88.304588" y="78.479695"/>
</g>
<g fill="rgb(54.116821%, 41.569519%, 12.156677%)" fill-opacity="1">
<use xlink:href="#glyph-5-8" x="92.045207" y="78.479695"/>
</g>
<g fill="rgb(54.116821%, 41.569519%, 12.156677%)" fill-opacity="1">
<use xlink:href="#glyph-5-18" x="97.495644" y="78.479695"/>
</g>
<g fill="rgb(54.116821%, 41.569519%, 12.156677%)" fill-opacity="1">
<use xlink:href="#glyph-5-21" x="101.236262" y="78.479695"/>
</g>
<g fill="rgb(54.116821%, 41.569519%, 12.156677%)" fill-opacity="1">
<use xlink:href="#glyph-5-0" x="23.245109" y="85.427551"/>
<use xlink:href="#glyph-5-1" x="27.201105" y="85.427551"/>
<use xlink:href="#glyph-5-2" x="29.447978" y="85.427551"/>
</g>
<g fill="rgb(54.116821%, 41.569519%, 12.156677%)" fill-opacity="1">
<use xlink:href="#glyph-5-22" x="36.506797" y="85.427551"/>
</g>
<g fill="rgb(54.116821%, 41.569519%, 12.156677%)" fill-opacity="1">
<use xlink:href="#glyph-5-0" x="41.106146" y="85.427551"/>
<use xlink:href="#glyph-5-23" x="45.062142" y="85.427551"/>
<use xlink:href="#glyph-5-6" x="49.446114" y="85.427551"/>
<use xlink:href="#glyph-5-2" x="53.830086" y="85.427551"/>
</g>
<g fill="rgb(54.116821%, 41.569519%, 12.156677%)" fill-opacity="1">
<use xlink:href="#glyph-5-18" x="60.888906" y="85.427551"/>
<use xlink:href="#glyph-5-1" x="64.844902" y="85.427551"/>
<use xlink:href="#glyph-5-1" x="67.091774" y="85.427551"/>
<use xlink:href="#glyph-5-0" x="69.338646" y="85.427551"/>
</g>
<g fill="rgb(54.116821%, 41.569519%, 12.156677%)" fill-opacity="1">
<use xlink:href="#glyph-5-8" x="73.079265" y="85.427551"/>
</g>
<g fill="rgb(54.116821%, 41.569519%, 12.156677%)" fill-opacity="1">
<use xlink:href="#glyph-5-4" x="78.529702" y="85.427551"/>
<use xlink:href="#glyph-5-2" x="82.058417" y="85.427551"/>
<use xlink:href="#glyph-5-24" x="86.442389" y="85.427551"/>
</g>
<g fill="rgb(54.116821%, 41.569519%, 12.156677%)" fill-opacity="1">
<use xlink:href="#glyph-4-3" x="91.364109" y="85.427551"/>
</g>
<g fill="rgb(54.116821%, 41.569519%, 12.156677%)" fill-opacity="1">
<use xlink:href="#glyph-6-0" x="96.270545" y="85.427551"/>
</g>
<g fill="rgb(54.116821%, 41.569519%, 12.156677%)" fill-opacity="1">
<use xlink:href="#glyph-7-0" x="102.474108" y="85.427551"/>
</g>
<g fill="rgb(54.116821%, 41.569519%, 12.156677%)" fill-opacity="1">
<use xlink:href="#glyph-5-25" x="109.104952" y="85.427551"/>
<use xlink:href="#glyph-5-0" x="111.565812" y="85.427551"/>
<use xlink:href="#glyph-5-19" x="115.521808" y="85.427551"/>
<use xlink:href="#glyph-5-22" x="118.623242" y="85.427551"/>
<use xlink:href="#glyph-5-5" x="123.007214" y="85.427551"/>
<use xlink:href="#glyph-5-2" x="125.254086" y="85.427551"/>
<use xlink:href="#glyph-5-17" x="129.638058" y="85.427551"/>
</g>
<g fill="rgb(22.744751%, 35.293579%, 47.059631%)" fill-opacity="1">
<use xlink:href="#glyph-5-4" x="164.887135" y="141.253488"/>
<use xlink:href="#glyph-5-26" x="168.41585" y="141.253488"/>
<use xlink:href="#glyph-5-18" x="172.585834" y="141.253488"/>
<use xlink:href="#glyph-5-3" x="176.54183" y="141.253488"/>
<use xlink:href="#glyph-5-27" x="180.070545" y="141.253488"/>
</g>
<g fill="rgb(22.744751%, 35.293579%, 47.059631%)" fill-opacity="1">
<use xlink:href="#glyph-4-4" x="158.564925" y="148.200348"/>
</g>
<g fill="rgb(22.744751%, 35.293579%, 47.059631%)" fill-opacity="1">
<use xlink:href="#glyph-7-1" x="166.078816" y="148.200348"/>
</g>
<g fill="rgb(22.744751%, 35.293579%, 47.059631%)" fill-opacity="1">
<use xlink:href="#glyph-4-3" x="174.4299" y="148.200348"/>
</g>
<g fill="rgb(22.744751%, 35.293579%, 47.059631%)" fill-opacity="1">
<use xlink:href="#glyph-6-0" x="179.336335" y="148.200348"/>
</g>
<g fill="rgb(22.744751%, 35.293579%, 47.059631%)" fill-opacity="1">
<use xlink:href="#glyph-7-0" x="185.539899" y="148.200348"/>
</g>
<g fill="rgb(22.744751%, 35.293579%, 47.059631%)" fill-opacity="1">
<use xlink:href="#glyph-5-9" x="156.226723" y="155.148205"/>
<use xlink:href="#glyph-5-10" x="159.328157" y="155.148205"/>
<use xlink:href="#glyph-5-11" x="164.993972" y="155.148205"/>
<use xlink:href="#glyph-5-12" x="169.377943" y="155.148205"/>
</g>
<g fill="rgb(22.744751%, 35.293579%, 47.059631%)" fill-opacity="1">
<use xlink:href="#glyph-5-15" x="178.573168" y="155.148205"/>
<use xlink:href="#glyph-5-14" x="182.529164" y="155.148205"/>
<use xlink:href="#glyph-5-28" x="184.776036" y="155.148205"/>
<use xlink:href="#glyph-5-16" x="188.732032" y="155.148205"/>
</g>
<g fill="rgb(54.116821%, 49.412537%, 41.96167%)" fill-opacity="1">
<use xlink:href="#glyph-5-3" x="40.305913" y="145.125917"/>
<use xlink:href="#glyph-5-4" x="43.834628" y="145.125917"/>
<use xlink:href="#glyph-5-5" x="47.363343" y="145.125917"/>
<use xlink:href="#glyph-5-1" x="49.610215" y="145.125917"/>
<use xlink:href="#glyph-5-5" x="51.857087" y="145.125917"/>
<use xlink:href="#glyph-5-6" x="54.10396" y="145.125917"/>
<use xlink:href="#glyph-5-7" x="58.487931" y="145.125917"/>
</g>
<g fill="rgb(54.116821%, 49.412537%, 41.96167%)" fill-opacity="1">
<use xlink:href="#glyph-5-12" x="65.118775" y="145.125917"/>
<use xlink:href="#glyph-5-18" x="71.639152" y="145.125917"/>
</g>
<g fill="rgb(54.116821%, 49.412537%, 41.96167%)" fill-opacity="1">
<use xlink:href="#glyph-5-21" x="75.37977" y="145.125917"/>
</g>
<g fill="rgb(54.116821%, 49.412537%, 41.96167%)" fill-opacity="1">
<use xlink:href="#glyph-5-22" x="82.224602" y="145.125917"/>
</g>
<g fill="rgb(54.116821%, 49.412537%, 41.96167%)" fill-opacity="1">
<use xlink:href="#glyph-5-4" x="86.823951" y="145.125917"/>
</g>
<g fill="rgb(54.116821%, 49.412537%, 41.96167%)" fill-opacity="1">
<use xlink:href="#glyph-5-1" x="93.027514" y="145.125917"/>
<use xlink:href="#glyph-5-0" x="95.274387" y="145.125917"/>
</g>
<g fill="rgb(54.116821%, 49.412537%, 41.96167%)" fill-opacity="1">
<use xlink:href="#glyph-5-0" x="99.44576" y="145.125917"/>
<use xlink:href="#glyph-5-17" x="103.401756" y="145.125917"/>
<use xlink:href="#glyph-5-4" x="106.546266" y="145.125917"/>
</g>
<g fill="rgb(54.116821%, 49.412537%, 41.96167%)" fill-opacity="1">
<use xlink:href="#glyph-5-4" x="50.747622" y="152.072777"/>
<use xlink:href="#glyph-5-26" x="54.276337" y="152.072777"/>
<use xlink:href="#glyph-5-18" x="58.446321" y="152.072777"/>
<use xlink:href="#glyph-5-3" x="62.402317" y="152.072777"/>
<use xlink:href="#glyph-5-27" x="65.931032" y="152.072777"/>
</g>
<g fill="rgb(54.116821%, 49.412537%, 41.96167%)" fill-opacity="1">
<use xlink:href="#glyph-4-0" x="71.707314" y="152.072777"/>
</g>
<g fill="rgb(54.116821%, 49.412537%, 41.96167%)" fill-opacity="1">
<use xlink:href="#glyph-8-0" x="75.927873" y="153.066039"/>
</g>
<g fill="rgb(54.116821%, 49.412537%, 41.96167%)" fill-opacity="1">
<use xlink:href="#glyph-5-5" x="82.476233" y="152.072777"/>
<use xlink:href="#glyph-5-6" x="84.723105" y="152.072777"/>
</g>
<g fill="rgb(54.116821%, 49.412537%, 41.96167%)" fill-opacity="1">
<use xlink:href="#glyph-5-29" x="91.781925" y="152.072777"/>
<use xlink:href="#glyph-5-30" x="95.676087" y="152.072777"/>
</g>
<path fill-rule="nonzero" fill="rgb(23.922729%, 25.097656%, 35.68573%)" fill-opacity="1" d="M 37.242188 163.824219 C 37.242188 162.949219 36.53125 162.238281 35.652344 162.238281 C 34.777344 162.238281 34.066406 162.949219 34.066406 163.824219 C 34.066406 164.703125 34.777344 165.414062 35.652344 165.414062 C 36.53125 165.414062 37.242188 164.703125 37.242188 163.824219 Z M 37.242188 163.824219 "/>
<g fill="rgb(23.922729%, 25.097656%, 35.68573%)" fill-opacity="1">
<use xlink:href="#glyph-4-4" x="44.807972" y="165.562019"/>
</g>
<g fill="rgb(23.922729%, 25.097656%, 35.68573%)" fill-opacity="1">
<use xlink:href="#glyph-8-1" x="49.681633" y="166.555282"/>
<use xlink:href="#glyph-8-2" x="53.059197" y="166.555282"/>
</g>
<g fill="rgb(23.922729%, 25.097656%, 35.68573%)" fill-opacity="1">
<use xlink:href="#glyph-7-3" x="56.933346" y="165.562019"/>
<use xlink:href="#glyph-7-0" x="60.034781" y="165.562019"/>
</g>
<g fill="rgb(23.922729%, 25.097656%, 35.68573%)" fill-opacity="1">
<use xlink:href="#glyph-4-5" x="63.990777" y="165.562019"/>
</g>
<g fill="rgb(23.922729%, 25.097656%, 35.68573%)" fill-opacity="1">
<use xlink:href="#glyph-7-0" x="67.70291" y="165.562019"/>
<use xlink:href="#glyph-7-0" x="71.658906" y="165.562019"/>
<use xlink:href="#glyph-7-4" x="75.614902" y="165.562019"/>
</g>
<g fill="rgb(23.922729%, 25.097656%, 35.68573%)" fill-opacity="1">
<use xlink:href="#glyph-7-1" x="80.974325" y="165.562019"/>
</g>
<g fill="rgb(23.922729%, 25.097656%, 35.68573%)" fill-opacity="1">
<use xlink:href="#glyph-7-0" x="89.332356" y="165.562019"/>
</g>
<path fill-rule="nonzero" fill="rgb(22.744751%, 35.293579%, 47.059631%)" fill-opacity="1" d="M 150.402344 118.640625 C 150.402344 117.652344 149.601562 116.855469 148.617188 116.855469 C 147.628906 116.855469 146.828125 117.652344 146.828125 118.640625 C 146.828125 119.628906 147.628906 120.425781 148.617188 120.425781 C 149.601562 120.425781 150.402344 119.628906 150.402344 118.640625 Z M 150.402344 118.640625 "/>
<path fill-rule="nonzero" fill="rgb(22.744751%, 35.293579%, 47.059631%)" fill-opacity="1" d="M 178.644531 118.640625 C 178.644531 117.652344 177.84375 116.855469 176.855469 116.855469 C 175.871094 116.855469 175.070312 117.652344 175.070312 118.640625 C 175.070312 119.628906 175.871094 120.425781 176.855469 120.425781 C 177.84375 120.425781 178.644531 119.628906 178.644531 118.640625 Z M 178.644531 118.640625 "/>
<path fill="none" stroke-width="0.3985" stroke-linecap="butt" stroke-linejoin="miter" stroke="rgb(72.549438%, 67.449951%, 59.214783%)" stroke-opacity="1" stroke-miterlimit="10" d="M 28.344921 -0.0000435543 L 28.344921 -4.536581 " transform="matrix(0.996251, 0, 0, -0.996251, 7.41368, 175.12105)"/>
<path fill="none" stroke-width="0.3985" stroke-linecap="butt" stroke-linejoin="miter" stroke="rgb(72.549438%, 67.449951%, 59.214783%)" stroke-opacity="1" stroke-miterlimit="10" d="M 56.693378 -0.0000435543 L 56.693378 -4.536581 " transform="matrix(0.996251, 0, 0, -0.996251, 7.41368, 175.12105)"/>
<path fill="none" stroke-width="0.3985" stroke-linecap="butt" stroke-linejoin="miter" stroke="rgb(72.549438%, 67.449951%, 59.214783%)" stroke-opacity="1" stroke-miterlimit="10" d="M 85.041836 -0.0000435543 L 85.041836 -4.536581 " transform="matrix(0.996251, 0, 0, -0.996251, 7.41368, 175.12105)"/>
<path fill="none" stroke-width="0.3985" stroke-linecap="butt" stroke-linejoin="miter" stroke="rgb(72.549438%, 67.449951%, 59.214783%)" stroke-opacity="1" stroke-miterlimit="10" d="M 113.386373 -0.0000435543 L 113.386373 -4.536581 " transform="matrix(0.996251, 0, 0, -0.996251, 7.41368, 175.12105)"/>
<path fill="none" stroke-width="0.3985" stroke-linecap="butt" stroke-linejoin="miter" stroke="rgb(72.549438%, 67.449951%, 59.214783%)" stroke-opacity="1" stroke-miterlimit="10" d="M 141.734831 -0.0000435543 L 141.734831 -4.536581 " transform="matrix(0.996251, 0, 0, -0.996251, 7.41368, 175.12105)"/>
<path fill="none" stroke-width="0.3985" stroke-linecap="butt" stroke-linejoin="miter" stroke="rgb(72.549438%, 67.449951%, 59.214783%)" stroke-opacity="1" stroke-miterlimit="10" d="M 170.079368 -0.0000435543 L 170.079368 -4.536581 " transform="matrix(0.996251, 0, 0, -0.996251, 7.41368, 175.12105)"/>
<g fill="rgb(54.116821%, 49.412537%, 41.96167%)" fill-opacity="1">
<use xlink:href="#glyph-5-15" x="33.67586" y="189.734064"/>
</g>
<g fill="rgb(54.116821%, 49.412537%, 41.96167%)" fill-opacity="1">
<use xlink:href="#glyph-5-28" x="61.915599" y="189.734064"/>
</g>
<g fill="rgb(54.116821%, 49.412537%, 41.96167%)" fill-opacity="1">
<use xlink:href="#glyph-5-13" x="90.155338" y="189.734064"/>
</g>
<g fill="rgb(54.116821%, 49.412537%, 41.96167%)" fill-opacity="1">
<use xlink:href="#glyph-5-31" x="118.396073" y="189.734064"/>
</g>
<g fill="rgb(54.116821%, 49.412537%, 41.96167%)" fill-opacity="1">
<use xlink:href="#glyph-5-30" x="146.635812" y="189.734064"/>
</g>
<g fill="rgb(54.116821%, 49.412537%, 41.96167%)" fill-opacity="1">
<use xlink:href="#glyph-5-32" x="174.876547" y="189.734064"/>
</g>
</svg>
